{"glyphs":{"0":{"ha":939,"x_min":81,"x_max":857,"o":"m 469 -19 q 322 7 388 -19 q 212 78 257 33 q 138 186 168 123 q 94 324 108 250 q 81 482 81 397 q 94 641 81 567 q 138 778 108 714 q 212 886 168 841 q 322 957 257 931 q 469 983 388 983 q 615 957 549 983 q 725 886 680 931 q 800 778 770 841 q 844 641 830 714 q 857 482 857 567 q 835 287 857 376 q 767 129 812 198 q 646 20 722 59 q 469 -19 570 -19 m 556 949 q 537 958 556 949 q 469 966 517 966 q 381 949 420 966 q 316 900 342 932 q 271 825 290 867 q 241 726 252 783 q 226 611 231 670 q 221 482 221 553 q 228 329 221 397 q 251 196 234 260 q 295 91 268 133 q 367 23 323 48 q 469 -3 410 -3 q 571 23 527 -3 q 642 91 614 48 q 686 196 669 133 q 710 329 703 260 q 716 482 716 397 q 711 611 716 553 q 696 726 707 670 q 667 825 686 783 q 621 900 648 867 q 556 949 595 932 z "},"1":{"ha":476,"x_min":71,"x_max":408,"o":"m 100 16 q 149 36 129 16 q 170 85 170 56 l 170 749 q 152 802 170 786 q 88 818 135 817 l 88 834 q 200 873 157 844 q 273 964 244 903 l 310 964 l 310 85 q 330 36 310 56 q 379 16 350 16 l 408 16 l 408 0 l 71 0 l 71 16 l 100 16 z "},"2":{"ha":838,"x_min":75,"x_max":753,"o":"m 105 629 q 92 684 96 654 q 93 748 89 714 q 109 815 97 782 q 144 879 120 848 q 202 932 168 909 q 286 969 235 955 q 399 983 337 983 q 666 902 578 983 q 753 686 753 822 q 728 574 753 626 q 660 484 703 523 q 563 410 616 444 q 450 344 510 376 q 334 282 389 312 q 228 216 279 252 q 144 141 176 179 l 522 141 l 521 141 q 629 154 586 141 q 696 192 673 166 q 728 250 719 218 q 736 327 736 281 l 736 356 l 753 356 l 753 141 l 753 141 l 753 0 l 75 0 q 94 96 75 52 q 143 175 112 140 q 214 240 174 209 q 299 300 254 271 q 388 357 344 328 q 473 419 433 386 q 544 491 513 453 q 593 578 575 528 q 612 686 612 628 q 559 893 612 819 q 399 966 506 966 q 292 938 335 966 q 233 867 249 910 q 217 776 216 824 q 235 684 217 728 q 238 675 237 678 l 238 675 q 241 653 241 667 q 221 603 241 624 q 172 583 201 583 q 133 594 151 583 q 107 625 115 606 l 106 625 q 106 627 106 625 q 105 629 106 629 z "},"3":{"ha":833,"x_min":75,"x_max":755,"o":"m 502 566 q 689 466 623 543 q 755 278 755 389 q 661 62 755 144 q 385 -19 566 -19 q 272 -5 323 -19 q 188 32 221 9 q 130 85 154 55 q 94 149 106 115 q 79 216 83 182 q 78 280 75 250 q 91 334 81 310 q 92 337 91 335 q 93 339 92 338 l 93 340 q 119 370 101 358 q 157 381 136 381 q 207 361 186 381 q 227 311 227 340 q 224 288 227 297 l 224 288 q 220 280 223 286 q 202 188 203 236 q 218 97 202 140 q 278 25 235 54 q 385 -3 321 -3 q 554 72 494 -3 q 614 278 614 146 q 557 485 614 411 q 405 558 500 558 l 405 574 q 562 762 562 574 q 516 907 562 847 q 398 966 471 966 q 270 918 308 966 q 261 789 231 869 q 262 787 262 789 q 263 785 263 785 l 263 785 q 267 762 267 774 q 247 712 267 732 q 197 692 226 692 q 147 712 168 692 q 126 762 126 732 q 131 806 126 783 q 148 855 136 829 q 180 903 159 881 q 230 943 201 925 q 302 972 258 962 q 398 983 345 983 q 533 965 474 983 q 629 917 593 947 q 684 846 665 886 q 703 762 703 807 q 651 633 703 684 q 502 566 599 583 z "},"4":{"ha":930,"x_min":64,"x_max":857,"o":"m 237 674 q 377 822 307 760 q 509 918 447 884 q 623 967 570 952 q 722 983 675 983 q 822 961 786 983 q 857 902 857 939 q 837 852 857 873 q 787 831 817 831 q 740 840 763 831 q 702 859 718 848 q 661 878 686 869 q 608 886 636 886 q 254 674 426 886 q 140 470 160 559 q 171 334 120 381 q 332 286 221 286 l 586 286 l 586 551 q 567 605 586 589 q 496 620 548 620 l 505 674 q 617 713 573 684 q 690 804 661 743 l 726 804 l 726 286 l 791 286 l 825 145 l 726 145 l 726 85 q 747 36 726 56 q 796 16 767 16 l 825 16 l 825 0 l 488 0 l 488 16 l 516 16 q 566 36 545 16 q 586 85 586 56 l 586 145 l 332 145 q 198 161 254 145 q 114 207 143 178 q 75 275 85 235 q 73 362 64 315 q 103 461 81 408 q 160 567 126 513 q 237 674 193 620 z "},"5":{"ha":913,"x_min":74,"x_max":837,"o":"m 149 381 q 198 361 178 381 q 219 311 219 340 q 215 288 219 298 l 215 288 q 212 281 214 283 q 201 221 201 253 q 211 157 201 189 q 239 97 220 125 q 286 46 259 68 q 350 11 313 24 q 429 -3 387 -3 q 558 23 504 -3 q 641 95 612 50 q 683 194 670 141 q 696 311 696 248 q 681 421 696 370 q 638 511 667 471 q 563 574 610 551 q 456 597 516 597 q 218 644 288 597 q 149 793 149 691 q 163 851 149 821 q 204 906 177 880 q 274 947 231 931 q 372 964 318 964 l 734 964 l 734 823 l 734 823 l 734 608 l 718 608 l 718 637 q 709 714 718 682 q 677 772 701 746 q 611 811 654 798 q 503 823 568 823 l 503 823 l 428 823 q 264 802 309 823 q 219 733 219 781 q 229 693 219 712 q 263 656 239 675 q 336 625 287 637 q 456 614 386 614 q 627 591 553 614 q 746 527 701 568 q 814 432 791 486 q 837 311 837 378 q 826 214 837 259 q 785 124 814 168 q 711 50 756 81 q 594 0 667 19 q 429 -19 522 -19 q 331 -8 377 -19 q 249 20 284 2 q 183 62 213 38 q 134 114 154 86 q 99 171 113 142 q 80 230 85 201 q 74 284 74 258 q 81 332 75 311 q 84 339 83 336 l 84 340 q 110 370 92 358 q 149 381 127 381 z "},"6":{"ha":855,"x_min":81,"x_max":772,"o":"m 456 966 q 363 938 404 966 q 295 857 322 909 q 253 740 269 805 q 230 597 237 675 q 426 638 311 638 q 680 558 588 638 q 772 310 772 477 q 680 62 772 142 q 426 -19 588 -19 q 173 80 264 -19 q 81 382 81 179 q 93 571 81 484 q 135 735 106 659 q 208 866 164 812 q 319 951 252 920 q 469 983 385 983 q 613 952 543 983 q 728 869 684 922 q 772 758 772 817 q 751 708 772 728 q 701 687 730 687 q 652 708 672 687 q 631 758 631 728 q 628 810 631 785 q 613 865 625 836 q 583 916 602 895 q 532 952 565 937 q 456 966 499 966 m 574 541 q 546 581 574 541 q 426 622 517 622 q 278 541 334 622 q 221 310 221 460 q 278 78 221 159 q 426 -3 334 -3 q 574 79 517 -3 q 631 310 631 160 q 574 541 631 460 z "},"7":{"ha":743,"x_min":78,"x_max":682,"o":"m 458 964 q 555 947 511 964 q 626 906 600 931 q 667 851 652 880 q 682 793 682 821 q 631 671 682 720 q 482 622 581 622 q 317 311 317 622 l 317 85 q 337 36 317 56 q 387 16 357 16 l 416 16 l 416 0 l 78 0 l 78 16 l 106 16 q 156 36 136 16 q 176 85 176 56 l 176 311 q 179 384 176 353 q 189 451 181 416 q 209 513 196 487 q 245 564 222 538 q 300 604 268 589 q 378 629 332 619 q 482 638 424 638 q 579 663 548 638 q 611 733 611 688 q 566 802 611 781 q 401 823 521 823 l 327 823 q 218 811 262 823 q 152 772 175 798 q 120 714 129 746 q 111 637 111 682 l 111 608 l 95 608 l 95 823 l 95 823 l 95 964 l 458 964 z "},"8":{"ha":918,"x_min":78,"x_max":840,"o":"m 145 761 q 228 922 145 861 q 481 983 311 983 q 707 909 616 983 q 798 728 798 835 q 754 588 798 651 q 639 495 711 525 q 790 388 740 448 q 840 238 840 328 q 818 139 840 185 q 753 58 796 94 q 641 1 711 22 q 481 -19 571 -19 q 183 57 288 -19 q 78 267 78 132 q 140 469 78 388 q 288 570 201 550 q 182 655 220 609 q 145 761 145 701 m 699 238 q 648 380 699 321 q 479 486 598 439 q 314 556 362 532 q 245 467 272 541 q 218 267 218 392 q 290 68 218 140 q 481 -3 362 -3 q 590 14 546 -3 q 656 64 633 31 q 689 138 680 97 q 699 238 699 180 m 481 966 q 337 909 389 966 q 286 761 286 852 q 333 644 286 699 q 479 556 380 589 q 591 516 551 532 q 656 728 656 574 q 481 966 656 966 z "},"9":{"ha":855,"x_min":83,"x_max":774,"o":"m 175 902 q 221 942 175 902 q 429 983 267 983 q 683 884 591 983 q 774 583 774 785 q 762 393 774 481 q 720 229 749 306 q 647 98 691 152 q 536 12 603 43 q 387 -19 470 -19 q 242 12 312 -19 q 127 95 172 43 q 83 207 83 148 q 104 256 83 236 q 154 277 125 277 q 203 256 183 277 q 224 207 224 236 q 227 154 224 180 q 242 99 231 129 q 272 48 254 69 q 323 12 290 26 q 399 -3 356 -3 q 492 26 452 -3 q 560 107 533 55 q 603 223 587 159 q 625 367 618 288 q 429 326 546 326 q 175 407 267 326 q 83 654 83 487 q 175 902 83 822 m 281 424 q 309 383 281 424 q 429 342 338 342 q 577 424 521 342 q 634 654 634 505 q 577 885 634 804 q 429 966 521 966 q 281 885 338 966 q 224 654 224 804 q 281 424 224 505 z "},"\u0000":{"ha":0,"x_min":0,"x_max":0,"o":""},"\n":{"ha":0,"x_min":0,"x_max":0,"o":""},"\r":{"ha":0,"x_min":0,"x_max":0,"o":""}," ":{"ha":500,"x_min":0,"x_max":0,"o":""},"!":{"ha":319,"x_min":80,"x_max":239,"o":"m 144 164 l 94 894 q 112 943 92 922 q 159 964 131 964 q 208 943 188 964 q 225 894 227 922 l 174 164 l 144 164 m 237 64 q 214 4 239 28 q 155 -18 190 -20 q 105 4 125 -16 q 82 54 84 24 q 105 114 80 89 q 165 136 130 138 q 214 114 194 134 q 237 64 235 93 z "},"\"":{"ha":454,"x_min":58,"x_max":395,"o":"m 136 983 q 192 959 170 983 q 214 905 214 936 q 177 804 214 845 q 66 764 140 764 l 69 779 q 116 801 111 779 q 91 842 121 822 q 58 905 58 865 q 82 961 58 940 q 136 983 106 983 m 317 983 q 373 959 351 983 q 395 905 395 936 q 358 804 395 845 q 248 764 321 764 l 251 779 q 297 801 293 779 q 272 842 302 822 q 240 905 240 865 q 264 961 240 940 q 317 983 288 983 z "},"“":{"ha":454,"x_min":58,"x_max":395,"o":"m 136 983 q 192 959 170 983 q 214 905 214 936 q 177 804 214 845 q 66 764 140 764 l 69 779 q 116 801 111 779 q 91 842 121 822 q 58 905 58 865 q 82 961 58 940 q 136 983 106 983 m 317 983 q 373 959 351 983 q 395 905 395 936 q 358 804 395 845 q 248 764 321 764 l 251 779 q 297 801 293 779 q 272 842 302 822 q 240 905 240 865 q 264 961 240 940 q 317 983 288 983 z "},"”":{"ha":454,"x_min":58,"x_max":395,"o":"m 136 983 q 192 959 170 983 q 214 905 214 936 q 177 804 214 845 q 66 764 140 764 l 69 779 q 116 801 111 779 q 91 842 121 822 q 58 905 58 865 q 82 961 58 940 q 136 983 106 983 m 317 983 q 373 959 351 983 q 395 905 395 936 q 358 804 395 845 q 248 764 321 764 l 251 779 q 297 801 293 779 q 272 842 302 822 q 240 905 240 865 q 264 961 240 940 q 317 983 288 983 z "},"#":{"ha":769,"x_min":72,"x_max":698,"o":"m 698 642 l 632 642 l 597 374 l 698 374 l 698 345 l 593 345 l 570 164 l 429 164 l 453 345 l 275 345 l 252 164 l 111 164 l 134 345 l 72 345 l 72 374 l 138 374 l 173 642 l 72 642 l 72 671 l 176 671 l 200 852 l 341 852 l 317 671 l 495 671 l 519 852 l 659 852 l 636 671 l 698 671 l 698 642 m 457 374 l 492 642 l 313 642 l 279 374 l 457 374 z "},"$":{"ha":907,"x_min":81,"x_max":829,"o":"m 471 574 q 667 503 608 533 q 822 325 795 437 q 829 257 829 293 q 817 187 829 223 q 777 115 804 151 q 709 50 749 79 q 610 2 669 21 q 479 -18 550 -16 q 475 -19 477 -18 q 471 -19 472 -19 l 471 -79 l 441 -79 l 441 -18 q 312 0 372 -16 q 210 43 252 17 q 138 104 168 70 q 95 177 108 139 q 83 255 81 215 q 102 332 85 295 q 134 368 113 355 q 177 382 155 382 q 234 352 212 382 q 243 288 255 322 l 243 288 q 225 211 227 250 q 237 137 224 172 q 276 72 250 101 q 345 24 302 43 q 441 -1 387 5 l 441 442 q 274 496 309 482 q 106 624 147 546 q 82 726 82 669 q 175 909 82 836 q 402 983 268 983 q 441 981 415 983 l 441 1043 l 471 1043 l 471 979 q 593 947 537 970 q 684 894 648 924 q 743 829 720 863 q 775 762 767 794 q 778 705 783 730 q 748 659 772 675 q 692 648 725 643 q 647 681 664 653 q 635 738 631 708 q 606 883 647 823 q 471 961 564 944 l 471 574 m 441 583 l 441 964 q 402 966 422 966 q 253 911 314 966 q 192 787 192 856 q 206 724 192 753 q 240 675 220 695 q 297 638 261 656 q 363 609 332 620 q 441 583 393 597 m 479 -2 q 640 63 576 -2 q 703 216 703 127 q 686 297 703 262 q 633 357 668 332 q 561 399 597 382 q 471 433 524 416 l 471 -2 l 479 -2 z "},"%":{"ha":1122,"x_min":66,"x_max":1053,"o":"m 710 314 q 738 342 710 314 q 854 370 766 370 q 997 314 941 370 q 1053 176 1053 258 q 997 37 1053 94 q 854 -19 941 -19 q 710 37 766 -19 q 654 176 654 94 q 710 314 654 258 m 854 -3 q 896 48 880 -3 q 912 176 912 100 q 896 303 912 252 q 854 354 880 354 q 810 303 827 354 q 794 176 794 252 q 810 48 794 100 q 854 -3 827 -3 m 531 910 q 569 874 531 910 q 607 732 607 838 q 531 553 607 626 q 337 481 456 481 q 142 553 218 481 q 66 732 66 626 q 142 910 66 838 q 337 983 218 983 q 531 910 456 983 m 243 899 q 225 865 243 899 q 208 732 208 831 q 243 565 208 632 q 337 497 279 497 q 431 564 395 497 q 466 732 466 631 q 431 899 466 832 q 337 966 395 966 q 243 899 279 966 m 1008 966 q 924 948 963 966 q 854 894 885 930 q 797 815 823 859 q 750 714 772 772 q 712 602 728 656 q 680 481 696 548 q 507 104 619 227 q 246 -19 395 -19 l 246 -3 q 610 481 496 -3 q 767 853 667 724 q 1008 983 867 983 l 1008 966 z "},"&":{"ha":1012,"x_min":78,"x_max":947,"o":"m 943 475 q 947 454 947 464 q 926 405 947 425 q 876 384 905 384 q 827 404 848 384 q 806 453 807 425 l 806 453 q 760 583 806 535 q 642 630 714 630 q 523 591 574 630 q 471 506 471 553 q 487 464 471 481 q 530 435 503 446 q 590 415 556 425 q 660 395 624 404 q 729 370 695 387 q 789 334 763 354 q 832 279 816 313 q 848 200 848 245 q 752 42 848 104 q 484 -19 656 -19 q 321 -1 393 -19 q 205 45 250 16 q 131 113 160 73 q 90 193 101 153 q 78 278 78 233 q 144 466 78 389 q 330 566 210 543 q 182 633 233 583 q 130 762 130 684 q 208 920 130 857 q 434 983 286 983 q 530 972 487 983 q 603 943 574 962 q 652 903 631 925 q 685 855 673 881 q 701 806 696 829 q 706 762 706 783 q 685 712 706 732 q 635 692 665 692 q 586 712 606 692 q 566 762 566 732 q 569 785 566 776 l 569 785 q 570 787 570 785 q 571 789 571 789 q 563 918 601 869 q 434 966 524 966 q 316 907 361 966 q 271 762 271 847 q 428 574 271 574 l 428 558 q 276 485 333 558 q 218 278 218 411 q 227 192 218 231 q 254 115 235 152 q 303 53 273 79 q 379 13 333 28 q 484 -3 425 -3 q 646 52 584 -3 q 708 172 708 106 q 694 236 708 208 q 657 284 680 264 q 607 320 635 303 q 552 354 580 337 q 503 391 525 372 q 466 440 480 411 q 452 506 452 469 q 484 583 452 549 q 558 631 515 616 q 642 646 600 646 q 843 595 763 646 q 943 475 923 544 z "},"'":{"ha":272,"x_min":58,"x_max":214,"o":"m 136 983 q 192 959 170 983 q 214 905 214 936 q 177 804 214 845 q 66 764 140 764 l 69 779 q 116 801 111 779 q 91 842 121 822 q 58 905 58 865 q 82 961 58 940 q 136 983 106 983 z "},"‘":{"ha":272,"x_min":58,"x_max":214,"o":"m 136 983 q 192 959 170 983 q 214 905 214 936 q 177 804 214 845 q 66 764 140 764 l 69 779 q 116 801 111 779 q 91 842 121 822 q 58 905 58 865 q 82 961 58 940 q 136 983 106 983 z "},"’":{"ha":272,"x_min":58,"x_max":214,"o":"m 136 983 q 192 959 170 983 q 214 905 214 936 q 177 804 214 845 q 66 764 140 764 l 69 779 q 116 801 111 779 q 91 842 121 822 q 58 905 58 865 q 82 961 58 940 q 136 983 106 983 z "},"(":{"ha":355,"x_min":86,"x_max":317,"o":"m 317 966 q 260 953 285 966 q 219 918 236 939 q 191 859 202 897 q 172 786 179 822 q 162 694 165 749 q 158 594 159 640 q 157 482 157 549 q 158 370 157 416 q 162 270 159 325 q 172 178 165 215 q 191 104 179 142 q 219 46 202 67 q 260 11 236 24 q 317 -3 285 -3 l 317 -19 q 220 -3 260 -19 q 154 52 179 12 q 115 126 130 91 q 95 232 100 161 q 87 347 89 302 q 86 482 86 391 q 87 617 86 573 q 95 733 89 662 q 115 839 100 804 q 154 912 130 873 q 220 967 179 951 q 317 983 260 983 l 317 966 z "},")":{"ha":355,"x_min":39,"x_max":269,"o":"m 39 983 q 136 967 95 983 q 201 912 176 951 q 240 839 226 873 q 261 733 255 804 q 268 617 267 662 q 269 482 269 573 q 268 347 269 391 q 261 232 267 302 q 240 126 255 161 q 201 52 226 91 q 136 -3 176 12 q 39 -19 95 -19 l 39 -3 q 95 11 71 -3 q 136 46 119 24 q 165 104 153 67 q 183 178 176 142 q 193 270 190 215 q 198 370 197 325 q 199 482 199 416 q 198 594 199 549 q 193 694 197 640 q 183 786 190 749 q 165 859 176 822 q 136 918 153 897 q 95 953 119 939 q 39 966 71 966 l 39 983 z "},"*":{"ha":528,"x_min":65,"x_max":463,"o":"m 368 785 q 341 810 357 804 q 311 811 326 816 q 283 795 296 806 q 373 770 328 795 q 430 714 417 745 q 419 660 443 684 q 384 645 404 645 q 349 660 364 645 q 338 711 328 682 q 329 759 346 743 q 284 778 312 776 q 330 697 315 746 q 331 618 344 648 q 286 587 318 587 q 251 601 265 587 q 236 636 236 616 q 264 681 236 667 q 288 708 282 692 q 290 738 294 724 q 273 766 285 753 q 249 676 273 721 q 193 619 224 632 q 139 629 162 606 q 124 664 124 644 q 139 699 124 684 q 191 711 161 722 q 238 720 222 703 q 257 764 255 736 q 176 719 225 733 q 96 718 127 705 q 65 764 65 730 q 80 799 65 784 q 115 813 94 813 q 159 785 146 813 q 199 758 176 758 q 244 776 223 758 q 155 800 199 776 q 98 856 111 825 q 108 910 85 887 q 143 925 123 925 q 178 910 163 925 q 190 859 200 888 q 199 811 182 827 q 243 792 216 794 q 198 873 212 824 q 196 953 183 922 q 214 975 201 966 q 242 983 227 983 q 277 969 262 983 q 292 934 292 954 q 263 889 292 903 q 236 849 236 873 q 254 804 236 825 q 279 894 254 849 q 334 951 304 939 q 389 941 365 964 q 404 906 404 926 q 389 871 404 886 q 337 859 367 849 q 289 850 306 867 q 271 806 273 833 q 352 851 302 837 q 431 852 401 865 q 463 807 463 840 q 448 772 463 787 q 413 758 433 758 q 368 785 382 758 z "},"+":{"ha":579,"x_min":65,"x_max":513,"o":"m 359 552 l 513 552 l 513 412 l 359 412 l 359 258 l 218 258 l 218 412 l 65 412 l 65 552 l 218 552 l 218 706 l 359 706 l 359 552 z "},",":{"ha":272,"x_min":58,"x_max":214,"o":"m 136 200 q 192 177 170 200 q 214 123 214 153 q 177 22 214 62 q 66 -19 140 -19 l 69 -3 q 116 18 111 -3 q 91 60 121 39 q 58 123 58 83 q 82 179 58 157 q 136 200 106 200 z "},"-":{"ha":559,"x_min":56,"x_max":503,"o":"m 503 412 l 56 412 l 56 552 l 503 552 l 503 412 z "},".":{"ha":267,"x_min":52,"x_max":215,"o":"m 146 14 q 89 27 115 9 q 57 77 62 45 q 70 135 52 109 q 119 167 88 161 q 178 154 151 172 q 210 104 204 136 q 197 46 215 73 q 146 14 178 20 z "},"/":{"ha":516,"x_min":0,"x_max":471,"o":"m 424 983 l 471 983 l 46 -145 l 0 -145 l 424 983 z "},":":{"ha":286,"x_min":59,"x_max":227,"o":"m 172 713 q 113 713 143 701 q 71 754 83 725 q 72 814 59 784 q 113 856 84 844 q 172 856 142 868 q 214 814 202 844 q 214 755 227 785 q 172 713 202 725 m 207 323 q 198 310 207 323 q 158 291 189 297 q 100 303 127 285 q 67 353 73 321 q 79 410 61 384 q 128 443 96 437 q 186 431 160 449 q 219 382 213 413 q 207 323 225 350 z "},";":{"ha":293,"x_min":64,"x_max":231,"o":"m 146 445 q 202 421 180 445 q 224 367 224 397 q 188 266 224 307 q 77 226 152 226 l 81 241 q 127 263 123 241 q 102 304 132 284 q 69 367 69 328 q 93 423 69 401 q 146 445 117 445 m 177 713 q 118 713 148 701 q 76 754 88 725 q 76 813 64 783 q 117 856 88 844 q 177 856 147 868 q 219 814 207 843 q 219 755 231 785 q 177 713 207 725 z "},"<":{"ha":715,"x_min":58,"x_max":646,"o":"m 560 288 q 614 306 599 288 q 629 357 629 323 l 646 357 q 621 219 646 262 q 543 177 595 177 q 451 204 500 177 q 357 269 403 231 q 266 345 312 307 q 164 409 219 382 q 58 436 110 436 l 58 509 q 178 538 114 509 q 296 607 241 566 q 403 689 351 648 q 501 758 454 730 q 580 787 548 787 q 629 768 613 787 q 646 717 646 749 l 629 717 q 580 770 629 770 q 503 743 549 770 q 413 680 457 715 q 309 600 370 644 q 198 531 248 555 q 296 459 241 505 q 390 378 351 414 q 475 316 429 343 q 560 288 522 288 z "},"=":{"ha":579,"x_min":65,"x_max":513,"o":"m 513 278 l 65 278 l 65 419 l 513 419 l 513 278 m 513 545 l 65 545 l 65 686 l 513 686 l 513 545 z "},">":{"ha":715,"x_min":69,"x_max":656,"o":"m 135 787 q 214 758 167 787 q 312 689 260 730 q 418 607 363 648 q 537 538 473 566 q 656 509 601 509 l 656 436 q 551 409 605 436 q 450 345 496 382 q 358 269 403 307 q 264 204 313 231 q 173 177 216 177 q 95 219 120 177 q 69 357 69 262 l 85 357 q 101 306 85 323 q 155 288 116 288 q 239 316 193 288 q 325 378 286 343 q 419 459 364 414 q 517 531 474 505 q 406 600 467 555 q 301 680 345 644 q 212 743 258 715 q 135 770 165 770 q 85 717 85 770 l 69 717 q 85 768 69 749 q 135 787 102 787 z "},"?":{"ha":800,"x_min":64,"x_max":729,"o":"m 375 136 q 430 114 407 136 q 452 59 452 91 q 430 4 452 27 q 375 -19 407 -19 q 326 -1 349 -19 q 323 1 325 0 q 298 59 298 24 q 323 116 298 93 l 326 119 q 375 136 347 136 m 375 983 q 642 902 555 983 q 729 686 729 822 q 710 572 729 627 q 662 477 692 518 q 596 399 632 436 q 523 331 559 361 q 457 272 487 300 q 409 217 427 245 q 390 164 390 189 l 360 164 q 384 235 360 195 q 440 321 407 276 q 508 417 474 366 q 565 540 541 469 q 588 686 588 610 q 535 893 588 819 q 375 966 482 966 q 268 938 311 966 q 209 867 225 910 q 192 776 192 824 q 210 684 193 728 q 214 675 213 678 l 214 675 q 218 653 218 667 q 197 603 218 624 q 147 583 176 583 q 109 594 126 583 q 83 625 91 606 l 83 625 q 82 627 83 625 q 81 629 81 629 q 68 684 71 654 q 68 748 64 714 q 84 815 73 782 q 120 879 96 848 q 178 932 144 909 q 262 969 212 955 q 375 983 313 983 z "},"@":{"ha":1154,"x_min":77,"x_max":1078,"o":"m 382 943 q 429 963 382 943 q 577 983 475 983 q 772 943 679 983 q 931 837 865 903 q 1038 677 998 770 q 1078 482 1078 584 q 1028 239 1078 333 q 903 145 978 145 q 815 177 848 145 q 770 258 783 210 q 686 162 751 197 q 534 127 622 127 q 273 196 369 127 q 176 372 176 265 q 207 485 176 436 q 289 562 237 534 q 403 604 341 590 q 534 618 465 618 q 762 545 682 618 l 762 640 q 745 750 762 703 q 696 826 727 798 q 627 867 665 854 q 543 881 589 881 q 453 868 490 881 q 399 831 417 855 q 374 780 380 808 q 370 715 368 751 l 370 711 q 350 661 370 682 q 300 640 329 640 q 252 659 272 640 q 230 705 232 677 l 230 707 l 230 708 q 310 843 226 788 q 543 897 393 897 q 683 882 619 897 q 797 837 747 867 q 874 757 846 807 q 903 640 903 707 l 903 393 q 917 312 903 338 q 973 286 931 286 q 1038 339 1015 286 q 1061 482 1061 391 q 1023 670 1061 581 q 920 825 985 760 q 765 928 855 890 q 577 966 675 966 q 389 928 479 966 q 234 825 299 890 q 131 670 170 760 q 93 482 93 581 q 117 330 93 404 q 186 196 142 256 q 291 91 231 136 q 425 22 351 46 q 577 -3 498 -3 q 791 47 690 -3 l 791 29 q 577 -19 691 -19 q 382 21 475 -19 q 223 127 290 60 q 116 288 156 195 q 77 482 77 380 q 116 677 77 584 q 223 837 156 770 q 382 943 290 903 m 762 311 l 762 311 l 762 321 l 762 372 l 762 372 q 705 541 762 481 q 534 602 649 602 q 372 544 428 602 q 317 372 317 486 q 378 202 317 261 q 534 143 440 143 q 694 188 627 143 q 762 311 762 233 z "},"A":{"ha":812,"x_min":28,"x_max":812,"o":"m 189 -19 q 129 -8 157 -19 q 76 30 100 3 q 40 95 52 56 q 36 196 28 134 q 72 334 43 258 l 313 964 l 377 964 l 713 85 q 722 64 718 73 q 729 48 726 56 q 737 36 732 41 q 744 27 741 31 q 752 22 746 24 q 760 18 758 20 q 770 17 762 17 q 782 16 778 16 q 796 16 785 16 q 812 16 806 16 l 812 0 l 507 0 l 507 16 q 530 17 519 16 q 552 17 542 17 q 569 21 562 18 q 579 32 576 25 q 581 53 583 39 q 572 85 579 66 l 572 85 l 457 387 q 414 360 431 384 q 386 300 396 336 q 368 221 376 264 q 347 136 359 178 q 317 59 335 94 q 267 3 299 24 q 189 -19 234 -19 m 88 334 q 69 235 67 275 q 93 169 71 194 q 139 133 115 144 q 189 122 164 122 q 257 136 229 122 q 303 174 286 151 q 333 225 320 197 q 356 282 346 254 q 378 336 367 311 q 409 377 390 360 q 453 397 427 394 l 283 842 l 88 334 z "},"B":{"ha":937,"x_min":32,"x_max":890,"o":"m 271 140 q 230 42 267 84 q 127 0 194 0 l 32 0 l 32 16 l 61 16 q 117 34 104 16 q 130 85 130 51 l 130 878 q 108 933 130 920 q 32 947 87 947 l 32 964 l 130 964 q 339 973 248 964 q 460 983 430 983 q 719 925 618 983 q 819 767 819 867 q 805 696 819 728 q 772 646 791 665 q 721 612 753 627 q 664 589 688 596 q 603 572 640 581 q 815 478 740 553 q 890 271 890 404 q 789 56 890 131 q 515 -19 688 -19 q 370 19 431 -19 q 271 140 309 56 m 749 271 q 686 479 749 396 q 515 562 624 562 q 337 483 402 562 q 271 271 271 405 q 338 68 271 140 q 515 -3 404 -3 q 685 72 622 -3 q 749 271 749 147 m 271 878 l 271 411 q 515 578 335 578 q 568 588 541 578 q 621 620 595 599 q 663 679 646 641 q 679 767 679 718 q 618 917 679 867 q 460 966 558 966 q 361 959 401 966 q 296 931 321 951 q 271 878 271 911 z "},"C":{"ha":932,"x_min":49,"x_max":888,"o":"m 874 171 l 888 161 q 549 -19 766 -19 q 337 20 433 -19 q 180 128 242 60 q 83 287 117 196 q 49 482 49 378 q 84 677 49 585 q 181 837 119 769 q 331 943 242 904 q 521 983 419 983 q 630 970 578 983 q 721 935 682 957 q 792 884 760 913 q 844 822 824 854 q 874 755 863 789 q 885 688 885 721 q 873 629 884 656 q 845 592 864 606 q 803 578 827 578 q 746 608 765 578 q 741 675 726 639 q 755 760 755 719 q 736 839 755 802 q 688 905 718 876 q 615 950 659 933 q 521 966 571 966 q 348 901 424 966 q 230 726 271 836 q 189 482 189 616 q 234 241 189 347 q 368 71 278 134 q 581 7 458 7 q 874 171 765 7 z "},"D":{"ha":1008,"x_min":32,"x_max":960,"o":"m 265 108 q 218 31 254 62 q 127 0 183 0 l 32 0 l 32 16 l 61 16 q 117 34 104 16 q 130 85 130 51 l 130 878 q 108 933 130 920 q 32 947 87 947 l 32 964 l 130 964 q 339 973 248 964 q 460 983 430 983 l 464 983 q 824 845 688 983 q 960 482 960 708 q 932 306 960 388 q 859 165 905 223 q 755 64 814 106 q 633 1 696 22 q 508 -19 570 -19 q 265 108 313 -19 m 271 411 l 271 165 q 337 41 271 85 q 508 -3 403 -3 q 591 11 550 -3 q 673 59 631 24 q 747 148 715 94 q 799 287 779 201 q 819 482 819 374 q 778 728 819 619 q 655 902 736 837 q 464 966 574 966 l 460 966 q 361 959 401 966 q 296 931 321 951 q 271 878 271 911 l 271 411 z "},"E":{"ha":791,"x_min":32,"x_max":725,"o":"m 725 342 l 725 0 l 32 0 l 32 16 q 111 30 92 16 q 130 85 130 43 l 130 878 q 110 934 130 920 q 32 947 90 947 l 32 964 l 691 964 l 691 622 l 675 622 q 674 681 675 656 q 670 742 673 705 q 659 804 666 779 q 638 859 652 830 q 606 906 625 888 q 558 936 587 924 q 492 947 529 947 l 340 947 q 292 927 312 947 q 271 878 271 907 l 271 429 q 338 514 293 481 q 437 551 382 547 q 458 553 450 553 q 476 556 465 554 q 493 562 487 559 q 508 571 500 566 q 520 585 515 577 q 529 604 524 593 q 535 630 533 616 q 536 664 536 644 q 534 706 536 683 l 551 706 q 583 319 570 496 l 566 319 q 530 481 559 427 q 437 535 501 535 q 322 482 372 535 q 271 368 271 429 l 271 85 q 289 28 272 41 q 370 16 306 16 l 526 16 q 580 23 555 16 q 622 40 604 30 q 653 68 640 50 q 676 102 667 86 q 692 145 686 119 q 702 191 699 172 q 706 241 705 210 q 708 292 708 273 q 709 342 709 311 l 725 342 z "},"F":{"ha":729,"x_min":31,"x_max":690,"o":"m 690 964 l 690 622 l 673 622 q 673 681 673 656 q 668 742 672 705 q 657 804 665 779 q 637 859 650 830 q 605 906 623 888 q 557 936 586 924 q 491 947 528 947 l 339 947 q 290 927 311 947 q 270 878 270 907 l 270 429 q 336 514 292 481 q 436 551 381 547 q 456 553 449 553 q 475 556 464 554 q 492 562 486 559 q 506 571 498 566 q 518 585 514 577 q 527 604 523 593 q 533 630 532 616 q 535 664 535 644 q 533 706 535 683 l 549 706 q 581 319 569 496 l 565 319 q 528 481 557 427 q 435 535 499 535 q 320 482 370 535 q 270 368 270 429 l 270 85 q 288 28 271 41 q 368 16 304 16 l 368 0 l 31 0 l 31 16 q 110 30 91 16 q 129 85 128 43 l 129 878 q 109 934 129 920 q 31 947 89 947 l 31 964 l 690 964 z "},"G":{"ha":1004,"x_min":49,"x_max":982,"o":"m 884 85 q 902 29 884 42 q 982 16 920 16 l 982 0 l 840 0 q 774 25 802 0 q 743 88 747 51 q 664 9 718 38 q 549 -19 610 -19 q 337 20 433 -19 q 180 128 242 60 q 83 287 117 196 q 49 482 49 378 q 84 677 49 585 q 181 837 119 769 q 331 943 242 904 q 521 983 419 983 q 630 970 578 983 q 721 935 682 957 q 792 884 760 913 q 844 822 824 854 q 874 755 863 789 q 885 688 885 721 q 873 629 884 656 q 845 592 864 606 q 803 578 827 578 q 746 608 765 578 q 741 675 726 639 q 755 760 755 719 q 736 839 755 802 q 688 905 718 876 q 615 950 659 933 q 521 966 571 966 q 348 901 424 966 q 230 726 271 836 q 189 482 189 616 q 202 329 189 401 q 243 196 215 258 q 313 91 271 135 q 414 22 354 47 q 549 -3 475 -3 q 677 37 618 -3 q 743 149 737 77 l 743 374 q 740 401 743 391 q 729 422 738 412 q 699 438 720 433 q 644 443 677 443 l 644 459 l 884 459 l 884 85 z "},"H":{"ha":1098,"x_min":32,"x_max":1067,"o":"m 370 16 l 370 0 l 32 0 l 32 16 q 110 30 90 16 q 130 85 130 43 l 130 878 q 128 906 130 896 q 116 927 125 916 q 86 943 107 938 q 32 947 65 947 l 32 964 l 370 964 l 370 947 q 291 930 310 947 q 271 878 271 912 l 271 447 q 423 541 332 541 q 480 530 453 541 q 530 504 508 519 q 573 473 551 488 q 621 447 594 458 q 675 436 647 436 q 762 465 723 436 q 827 541 801 493 l 827 878 q 808 933 828 919 q 729 947 789 947 l 729 964 l 1067 964 l 1067 947 q 985 935 1003 947 q 968 878 968 922 l 968 85 q 988 30 968 44 q 1067 16 1009 16 l 1067 0 l 729 0 l 729 16 q 807 30 787 16 q 827 85 827 43 l 827 517 q 675 422 767 422 q 616 433 644 422 q 566 459 588 444 q 524 490 545 475 q 477 517 503 506 q 423 528 451 528 q 271 422 328 528 l 271 85 q 290 30 272 43 q 370 16 309 16 z "},"I":{"ha":402,"x_min":32,"x_max":370,"o":"m 370 16 l 370 0 l 32 0 l 32 16 q 110 29 91 16 q 130 85 130 42 l 130 878 q 111 933 131 919 q 32 947 92 947 l 32 964 l 370 964 l 370 947 q 291 934 311 947 q 271 878 271 921 l 271 85 q 290 29 272 42 q 370 16 307 16 z "},"J":{"ha":709,"x_min":14,"x_max":684,"o":"m 285 -19 q 82 23 150 -19 q 14 137 14 66 q 35 189 14 166 q 85 211 56 211 q 135 190 115 211 q 156 140 156 170 q 163 92 156 115 q 186 47 170 70 q 237 11 203 24 q 319 -3 271 -3 q 365 6 345 -3 q 398 28 385 15 q 420 65 411 41 q 434 112 429 90 q 442 170 439 134 q 445 234 444 207 q 446 307 446 262 l 446 879 q 426 933 446 919 q 347 948 406 948 l 347 964 l 684 964 l 684 948 q 604 935 622 948 q 586 879 586 922 l 586 307 q 567 150 586 214 q 509 49 548 86 q 415 -3 469 12 q 285 -19 361 -19 z "},"K":{"ha":930,"x_min":32,"x_max":916,"o":"m 916 947 q 792 933 836 947 q 718 873 749 919 l 441 471 q 726 245 648 573 q 741 183 735 205 q 755 132 747 161 q 772 89 764 104 q 792 59 781 74 q 817 39 804 45 q 848 33 831 33 q 885 50 871 33 q 901 96 899 66 l 916 96 q 880 14 916 45 q 790 -18 844 -18 q 676 37 715 -18 q 600 243 637 92 q 557 377 575 342 q 443 455 520 454 q 431 455 437 456 l 271 223 l 271 85 q 291 30 271 43 q 370 16 311 16 l 370 0 l 32 0 l 32 16 q 111 29 93 16 q 130 85 130 42 l 130 878 q 112 933 131 919 q 32 947 92 947 l 32 964 l 370 964 l 370 947 q 290 934 308 947 q 271 878 271 921 l 271 247 l 699 869 q 712 899 710 886 q 707 920 714 912 q 687 934 699 928 q 656 943 675 940 q 619 946 637 945 q 578 947 601 947 l 578 964 l 916 964 l 916 947 z "},"L":{"ha":772,"x_min":32,"x_max":740,"o":"m 740 342 l 740 0 l 32 0 l 32 16 q 109 35 88 16 q 130 85 130 53 l 130 878 q 110 932 131 918 q 32 947 88 947 l 32 964 l 370 964 l 370 947 q 293 933 314 947 q 271 878 271 920 l 271 85 q 291 36 271 56 q 340 16 311 16 l 541 16 q 608 29 578 16 q 656 59 637 41 q 688 107 675 77 q 709 162 702 137 q 719 225 715 188 q 723 286 722 263 q 724 342 724 308 l 740 342 z "},"M":{"ha":1270,"x_min":14,"x_max":1238,"o":"m 351 16 l 351 0 l 14 0 l 14 16 q 92 22 63 16 q 140 45 121 28 q 167 92 160 62 q 174 172 174 121 l 174 791 q 143 917 175 887 q 14 947 111 947 l 14 964 l 253 964 l 653 298 l 1053 964 l 1238 964 l 1238 947 q 1161 933 1183 947 q 1139 878 1139 919 l 1139 85 q 1161 31 1139 45 q 1238 16 1183 16 l 1238 0 l 900 0 l 900 16 q 979 29 959 16 q 999 85 998 42 l 999 846 l 599 180 l 583 180 l 191 833 l 191 172 q 198 92 191 122 q 224 45 205 62 q 273 22 244 28 q 351 16 302 16 z "},"N":{"ha":989,"x_min":14,"x_max":975,"o":"m 351 16 l 351 0 l 14 0 l 14 16 q 93 22 64 16 q 141 45 121 27 q 168 92 161 62 q 174 172 174 121 l 174 791 q 167 871 174 841 q 140 918 160 901 q 91 941 120 935 q 14 947 62 947 l 14 964 l 253 964 l 798 135 l 798 791 q 767 918 799 888 q 637 947 736 947 l 637 964 l 975 964 l 975 947 q 895 942 924 947 q 847 919 866 937 q 821 872 827 901 q 814 791 814 842 l 814 172 q 822 93 814 123 q 850 45 830 62 q 899 22 870 28 q 975 16 927 16 l 975 0 l 745 0 l 191 835 l 191 172 q 198 92 191 122 q 225 45 205 62 q 274 22 245 28 q 351 16 302 16 z "},"O":{"ha":1042,"x_min":49,"x_max":991,"o":"m 521 -19 q 277 48 385 -19 q 109 230 168 116 q 49 482 49 345 q 84 677 49 585 q 181 837 119 769 q 331 943 242 904 q 521 983 419 983 q 711 943 623 983 q 860 837 799 904 q 957 677 922 769 q 991 482 991 585 q 932 230 991 345 q 764 48 873 116 q 521 -19 656 -19 m 694 901 q 656 934 694 901 q 521 966 618 966 q 348 901 424 966 q 230 726 271 836 q 189 482 189 616 q 230 238 189 349 q 348 63 271 128 q 521 -3 424 -3 q 694 63 618 -3 q 810 238 770 128 q 851 482 851 349 q 810 726 851 616 q 694 901 770 836 z "},"P":{"ha":937,"x_min":32,"x_max":908,"o":"m 370 16 l 370 0 l 32 0 l 32 16 l 61 16 q 110 36 90 16 q 130 85 130 56 l 130 878 q 110 927 130 907 q 61 947 90 947 l 32 947 l 32 964 l 149 964 q 285 973 174 964 q 457 983 396 983 q 793 916 677 983 q 908 705 908 849 q 880 582 908 633 q 796 502 851 531 q 671 460 741 473 q 510 447 602 447 q 442 441 474 447 q 378 419 410 435 q 323 381 346 404 q 286 319 300 357 q 271 233 271 281 l 271 85 q 291 36 271 56 q 340 16 311 16 l 370 16 m 271 878 l 271 324 q 358 428 296 392 q 511 463 420 463 q 618 477 572 463 q 693 513 665 491 q 738 568 721 535 q 762 633 755 600 q 768 705 768 666 q 752 807 768 762 q 701 889 736 852 q 605 946 667 926 q 457 966 543 966 q 366 960 404 966 q 308 941 328 954 q 280 913 288 928 q 271 878 271 898 z "},"Q":{"ha":1042,"x_min":49,"x_max":991,"o":"m 870 -97 q 918 -45 910 -97 l 928 -45 q 891 -117 922 -94 q 819 -139 860 -139 q 773 -131 794 -139 q 739 -113 752 -123 q 711 -84 725 -103 q 689 -50 696 -64 q 669 -12 681 -36 q 662 2 664 -3 q 521 -19 593 -19 q 277 48 385 -19 q 109 230 168 116 q 49 482 49 345 q 84 677 49 585 q 181 837 119 769 q 331 943 242 904 q 521 983 419 983 q 711 943 623 983 q 860 837 799 904 q 957 677 922 769 q 991 482 991 585 q 929 227 991 342 q 759 45 867 111 q 780 4 766 31 q 801 -37 793 -23 q 820 -66 808 -50 q 844 -90 831 -83 q 870 -97 856 -97 m 189 482 q 255 183 189 312 q 432 13 321 54 q 409 73 409 38 q 454 158 409 123 q 553 192 499 192 q 728 97 661 192 q 819 264 787 163 q 851 482 851 365 q 810 726 851 616 q 694 901 770 836 q 521 966 618 966 q 348 901 424 966 q 230 726 271 836 q 189 482 189 616 m 521 -3 q 647 31 587 -3 q 586 104 621 78 q 496 131 552 131 q 445 112 464 131 q 425 63 425 92 q 453 7 425 27 q 521 -3 487 -3 z "},"R":{"ha":996,"x_min":32,"x_max":968,"o":"m 953 96 l 968 96 q 931 14 968 45 q 841 -18 895 -18 q 727 37 766 -18 q 650 243 688 92 q 625 326 638 292 q 590 390 612 359 q 535 434 568 420 q 456 443 502 447 q 387 424 418 437 q 329 386 355 410 q 287 323 302 362 q 271 233 271 284 l 271 85 q 291 36 271 56 q 340 16 311 16 l 370 16 l 370 0 l 32 0 l 32 16 l 61 16 q 110 36 90 16 q 130 85 130 56 l 130 878 q 110 927 130 907 q 61 947 90 947 l 32 947 l 32 964 l 149 964 q 285 973 174 964 q 457 983 396 983 q 793 916 677 983 q 908 705 908 849 q 600 454 908 466 q 713 386 671 437 q 777 245 755 336 q 792 183 786 205 q 806 132 798 161 q 823 89 815 104 q 843 59 831 74 q 868 39 854 45 q 899 33 882 33 q 936 50 922 33 q 953 96 951 66 m 271 324 q 358 428 296 392 q 511 463 420 463 q 618 477 572 463 q 693 513 665 491 q 738 568 721 535 q 762 633 755 600 q 768 705 768 666 q 752 807 768 762 q 701 889 736 852 q 605 946 667 926 q 457 966 543 966 q 366 960 404 966 q 308 941 328 954 q 280 913 288 928 q 271 878 271 898 l 271 324 z "},"S":{"ha":855,"x_min":60,"x_max":808,"o":"m 682 216 q 660 302 682 265 q 603 364 639 340 q 520 407 567 388 q 422 441 474 426 q 319 472 371 456 q 221 509 267 488 q 138 558 174 530 q 81 628 102 585 q 60 726 60 671 q 153 909 60 835 q 380 983 245 983 q 528 962 460 983 q 640 911 596 942 q 712 842 683 880 q 752 768 742 804 q 756 705 762 732 q 726 659 750 675 q 669 648 703 643 q 625 681 642 653 q 612 738 608 708 q 568 902 627 838 q 380 966 509 966 q 231 911 292 966 q 170 787 170 856 q 191 708 170 743 q 250 651 213 673 q 335 611 287 629 q 435 578 382 593 q 542 545 488 562 q 643 504 595 528 q 727 448 690 479 q 786 368 764 416 q 808 257 808 319 q 795 187 808 223 q 755 114 783 151 q 687 49 727 78 q 588 2 648 20 q 456 -19 528 -17 q 316 -6 381 -21 q 204 34 250 8 q 124 96 157 60 q 75 170 90 131 q 61 251 60 210 q 80 332 62 293 q 112 368 91 355 q 155 381 133 381 q 211 351 190 381 q 221 288 232 321 l 222 288 l 221 288 q 202 206 203 248 q 218 127 201 164 q 265 61 235 90 q 345 15 296 32 q 456 -3 395 -3 q 617 62 553 -3 q 682 216 682 127 z "},"T":{"ha":801,"x_min":32,"x_max":768,"o":"m 48 622 l 32 622 l 32 964 l 768 964 l 768 622 l 752 622 q 570 947 752 947 l 471 947 l 471 85 q 491 31 472 45 q 570 16 511 16 l 570 0 l 231 0 l 231 16 q 309 31 290 16 q 329 85 328 45 l 329 947 l 231 947 q 48 622 48 947 z "},"U":{"ha":1087,"x_min":24,"x_max":1055,"o":"m 122 878 q 119 906 122 895 q 106 927 116 916 q 77 942 97 937 q 24 947 56 947 l 24 964 l 361 964 l 361 947 q 283 929 303 947 q 263 878 263 911 l 263 294 l 262 294 q 271 180 262 229 q 297 98 280 130 q 335 46 315 66 q 383 15 355 25 q 436 1 412 5 q 494 -3 461 -3 q 682 71 612 -3 q 751 272 751 145 q 730 401 751 338 q 676 512 708 464 q 614 604 645 559 q 561 693 583 648 q 539 778 539 738 q 610 909 539 854 q 816 964 681 964 l 1055 964 l 1055 947 q 978 935 998 947 q 957 878 958 922 l 957 85 q 976 30 958 43 q 1055 16 994 16 l 1055 0 l 913 0 q 844 28 873 0 q 816 98 816 57 l 816 947 q 691 930 747 947 q 597 874 635 913 q 560 781 560 836 q 582 694 560 740 q 633 605 603 649 q 694 514 664 562 q 746 402 725 466 q 768 272 768 339 q 692 59 768 138 q 494 -19 617 -19 q 419 -16 453 -19 q 345 -5 385 -14 q 275 17 306 3 q 215 55 244 31 q 165 111 185 79 q 134 190 146 143 q 122 294 122 237 l 122 878 z "},"V":{"ha":923,"x_min":-3,"x_max":926,"o":"m 516 964 l 926 964 l 926 947 q 897 945 910 947 q 873 939 884 942 q 853 927 863 935 q 836 911 843 918 q 819 890 828 905 q 805 865 810 876 q 791 834 800 855 q 777 799 782 812 q 760 757 771 785 l 477 0 l 461 0 l 462 1 l 461 0 l 119 878 q 78 930 106 913 q -3 947 51 947 l -3 964 l 335 964 l 335 947 q 262 929 277 947 q 260 878 247 911 l 530 184 l 745 758 l 744 757 q 765 821 759 796 q 769 870 771 846 q 752 907 767 894 q 708 930 738 920 q 631 944 677 940 q 516 947 585 947 l 516 964 z "},"W":{"ha":1393,"x_min":-3,"x_max":1395,"o":"m 985 964 l 1395 964 l 1395 947 q 1354 942 1372 947 q 1320 924 1336 937 q 1294 899 1305 911 q 1270 860 1283 886 q 1249 814 1257 833 q 1226 757 1240 794 l 931 0 l 915 0 q 574 870 734 471 q 552 903 566 890 q 523 920 538 916 q 494 921 508 924 q 471 905 480 918 q 463 870 463 891 q 476 815 463 846 q 508 752 489 785 q 547 679 526 719 q 583 587 568 638 q 602 478 597 536 q 594 343 608 420 q 548 180 581 266 l 477 0 l 461 0 l 119 878 q 106 908 112 898 q 87 929 100 918 q 53 943 74 939 q -3 947 31 947 l -3 964 l 335 964 l 335 947 q 263 929 279 947 q 260 878 248 910 l 532 180 q 577 340 564 264 q 585 474 590 416 q 565 583 579 532 q 530 674 551 634 q 491 748 509 715 q 459 812 473 781 q 446 867 446 843 q 461 934 446 905 q 499 980 476 964 q 553 1000 523 997 q 613 992 583 1003 q 670 952 642 981 q 716 878 699 922 q 808 643 740 819 q 928 330 876 468 q 985 180 981 193 l 1211 759 l 1210 757 q 1236 868 1239 826 q 1176 929 1233 910 q 985 947 1119 947 l 985 964 z "},"X":{"ha":1015,"x_min":5,"x_max":1009,"o":"m 343 16 l 343 0 l 5 0 l 5 16 q 62 18 39 16 q 107 28 85 20 q 141 43 128 36 q 172 71 154 51 q 203 108 191 91 q 241 160 216 125 l 459 473 l 176 878 q 121 935 146 922 q 37 947 96 947 l 37 964 l 375 964 l 375 947 q 316 878 268 947 l 551 543 q 733 804 640 672 q 762 854 753 832 q 772 890 771 876 q 765 916 773 905 q 747 933 758 927 q 718 942 736 939 q 684 946 700 945 q 646 947 668 947 l 646 964 l 984 964 l 984 947 q 928 945 951 947 q 884 936 905 943 q 849 920 863 928 q 818 893 836 912 q 786 856 800 874 q 749 804 772 838 l 559 532 l 871 85 q 925 28 902 41 q 1009 16 948 16 l 1009 0 l 671 0 l 671 16 q 709 17 697 16 q 734 19 720 17 q 750 25 747 21 q 754 37 753 29 q 748 56 755 45 q 730 85 742 68 l 467 461 l 256 160 q 230 117 240 136 q 214 83 219 98 q 210 58 210 69 q 214 40 210 47 q 226 28 218 33 q 244 21 233 23 q 268 18 256 19 q 296 16 281 16 q 326 16 311 16 q 343 16 337 16 z "},"Y":{"ha":998,"x_min":-3,"x_max":1000,"o":"m 123 878 q 93 923 106 910 q 59 942 80 937 q -3 947 39 947 l -3 964 l 329 964 l 329 947 q 300 947 308 947 q 279 946 293 947 q 261 942 264 945 q 251 935 257 940 q 247 923 245 930 q 252 904 248 916 q 264 878 256 893 l 539 385 q 772 804 697 669 q 792 854 788 831 q 792 891 797 877 q 776 917 788 906 q 750 933 764 928 q 719 943 736 939 q 688 947 701 946 q 663 947 676 947 l 663 964 l 1000 964 l 1000 947 q 925 941 955 947 q 872 915 896 935 q 831 872 848 896 q 789 804 814 848 l 547 370 l 547 85 q 567 36 547 56 q 616 16 587 16 l 646 16 l 646 0 l 308 0 l 308 16 l 337 16 q 386 36 366 16 q 406 85 406 56 l 406 370 q 123 878 156 819 z "},"Z":{"ha":753,"x_min":36,"x_max":708,"o":"m 708 0 l 36 0 l 532 947 l 273 947 q 195 925 229 947 q 142 870 161 903 q 111 794 123 837 q 94 717 98 752 q 90 650 90 682 l 90 621 l 74 621 l 74 964 l 673 964 l 673 947 l 185 16 l 509 16 q 587 39 553 16 q 640 94 621 61 q 671 169 659 127 q 688 247 684 212 q 692 313 692 281 l 692 342 l 708 342 l 708 0 z "},"[":{"ha":311,"x_min":90,"x_max":235,"o":"m 161 833 l 161 131 q 175 42 161 68 q 235 16 190 16 l 235 0 q 155 5 184 0 q 112 28 127 11 q 94 67 97 46 q 90 131 90 88 l 90 833 q 94 897 90 876 q 112 935 97 918 q 155 958 127 953 q 235 964 184 964 l 235 947 q 175 922 190 947 q 161 833 161 896 z "},"\\":{"ha":516,"x_min":46,"x_max":516,"o":"m 92 983 l 516 -145 l 470 -145 l 46 983 l 92 983 z "},"]":{"ha":311,"x_min":75,"x_max":220,"o":"m 220 833 l 220 131 q 218 86 220 102 q 212 52 217 69 q 198 27 208 35 q 173 12 189 19 q 133 2 157 5 q 75 0 110 0 l 75 16 q 135 42 121 16 q 150 131 150 68 l 150 833 q 135 922 150 896 q 75 947 121 947 l 75 964 q 133 961 110 964 q 173 952 157 959 q 198 937 189 945 q 212 911 208 928 q 218 878 217 895 q 220 833 220 861 z "},"^":{"ha":733,"x_min":60,"x_max":669,"o":"m 410 964 q 437 858 410 912 q 502 757 464 804 q 578 665 540 710 q 643 571 616 620 q 669 480 669 523 q 627 402 669 427 q 490 376 585 376 l 490 393 q 541 408 523 393 q 558 462 558 423 q 531 547 558 500 q 468 632 503 593 q 387 726 433 671 q 315 824 341 781 q 247 713 291 774 q 166 609 202 652 q 103 519 131 565 q 76 442 76 473 q 130 393 76 393 l 130 376 q 79 393 98 376 q 60 442 60 409 q 80 508 60 469 q 132 585 101 546 q 198 671 162 623 q 265 765 235 720 q 316 863 296 810 q 337 964 337 916 l 410 964 z "},"_":{"ha":616,"x_min":43,"x_max":573,"o":"m 573 -19 l 43 -19 l 43 52 l 573 52 l 573 -19 z "},"a":{"ha":869,"x_min":40,"x_max":844,"o":"m 745 178 q 753 123 745 142 q 783 98 761 104 q 844 109 805 92 l 844 93 l 621 0 l 604 0 l 604 93 q 517 11 578 40 q 376 -19 456 -19 q 126 49 213 -19 q 40 227 40 117 q 64 339 40 291 q 132 416 88 387 q 232 458 176 444 q 357 472 288 472 q 604 313 543 472 l 604 505 q 450 735 604 735 q 399 727 424 735 q 350 701 374 719 q 311 651 326 684 q 296 574 296 618 q 279 520 296 542 q 229 498 262 498 q 176 522 196 498 q 155 577 155 545 q 200 666 155 625 q 313 729 245 707 q 450 751 380 751 q 670 685 595 751 q 745 505 745 619 l 745 178 m 376 -3 q 537 42 469 -3 q 604 165 604 87 l 604 227 l 604 219 q 537 389 604 321 q 376 456 469 456 q 237 396 293 456 q 181 227 181 336 q 233 55 181 113 q 376 -3 285 -3 z "},"b":{"ha":844,"x_min":-16,"x_max":791,"o":"m 464 751 q 701 651 611 751 q 791 366 791 551 q 770 227 791 291 q 716 118 750 162 q 637 42 682 73 q 546 -4 593 10 q 451 -19 498 -19 q 358 -7 400 -19 q 290 21 316 4 q 243 54 264 37 q 203 83 222 71 q 169 94 185 94 q 150 90 160 94 q 127 76 139 85 q 107 46 115 66 q 100 0 100 26 l 83 0 l 83 785 q 66 866 85 853 q -16 855 47 880 l -16 871 l 208 964 l 224 964 l 224 557 q 313 703 248 655 q 464 751 377 751 m 427 -3 q 514 16 475 -3 q 578 68 553 35 q 619 149 603 101 q 643 250 635 196 q 650 366 650 303 q 644 480 650 428 q 624 579 638 532 q 588 659 610 626 q 531 711 566 692 q 454 730 497 730 q 288 653 352 730 q 224 445 224 576 l 224 199 q 281 54 224 110 q 427 -3 339 -3 z "},"c":{"ha":751,"x_min":50,"x_max":703,"o":"m 690 117 l 703 106 q 456 -19 610 -19 q 276 11 355 -19 q 149 94 197 41 q 75 216 100 147 q 50 366 50 285 q 96 560 50 473 q 228 700 142 648 q 420 751 313 751 q 534 732 483 751 q 617 681 585 712 q 669 612 649 650 q 696 535 690 573 q 696 465 702 498 q 672 421 691 439 q 627 404 653 404 q 571 431 594 404 q 560 497 547 458 q 573 562 571 529 q 568 626 576 595 q 543 682 560 657 q 494 721 526 706 q 421 735 463 735 q 298 685 351 735 q 218 552 245 635 q 191 366 191 469 q 456 -3 191 -3 q 690 117 600 -3 z "},"d":{"ha":887,"x_min":53,"x_max":859,"o":"m 760 178 q 765 134 760 151 q 780 107 769 117 q 810 97 791 96 q 859 109 829 98 l 859 93 l 635 0 l 619 0 l 619 85 q 544 8 596 35 q 417 -19 492 -19 q 274 5 339 -19 q 159 76 208 29 q 81 197 109 122 q 53 366 53 271 q 83 533 53 458 q 163 654 113 607 q 279 726 214 701 q 417 751 345 751 q 481 742 450 751 q 540 712 512 732 q 589 657 568 692 q 619 575 610 622 l 619 785 q 599 856 619 836 q 550 866 578 877 l 521 855 l 521 871 l 744 964 l 760 964 l 760 178 m 417 -3 q 563 41 507 -3 q 619 165 619 85 l 619 445 q 567 658 619 581 q 417 735 515 735 q 293 683 345 735 q 217 549 241 631 q 193 366 193 467 q 205 222 193 286 q 242 106 217 158 q 312 26 267 54 q 417 -3 356 -3 z "},"e":{"ha":732,"x_min":52,"x_max":692,"o":"m 679 119 l 692 109 q 444 -19 599 -19 q 272 11 348 -19 q 149 94 196 41 q 76 216 101 146 q 52 366 52 286 q 79 528 52 454 q 155 650 107 601 q 267 725 203 699 q 404 751 331 751 q 604 697 533 751 q 675 568 675 644 q 603 437 675 484 q 385 390 530 390 q 258 360 304 390 q 200 266 212 331 q 219 185 207 223 q 252 113 231 148 q 298 53 272 78 q 362 13 324 28 q 444 -3 399 -3 q 679 119 588 -3 m 192 366 q 195 300 192 338 q 267 381 216 357 q 385 406 318 406 q 510 453 471 406 q 550 575 550 499 q 508 689 550 644 q 404 735 467 735 q 287 685 336 735 q 215 552 238 634 q 192 366 192 471 z "},"f":{"ha":433,"x_min":32,"x_max":655,"o":"m 130 677 q 203 896 130 828 q 422 964 276 964 q 591 922 527 964 q 655 806 655 881 q 634 756 655 777 q 585 735 614 735 q 535 756 555 735 q 515 806 515 777 q 482 905 515 862 q 398 947 449 947 q 343 936 366 947 q 307 904 321 924 q 284 849 292 884 q 274 774 277 814 q 271 677 271 735 l 271 629 l 412 629 l 412 612 l 271 612 l 271 85 q 291 36 271 56 q 340 16 311 16 l 370 16 l 370 0 l 32 0 l 32 16 l 61 16 q 110 36 90 16 q 130 85 130 56 l 130 612 l 32 612 l 32 629 l 130 629 l 130 677 z "},"g":{"ha":768,"x_min":52,"x_max":721,"o":"m 218 241 q 96 336 140 275 q 52 479 52 397 q 145 673 52 594 q 385 751 239 751 l 399 751 q 464 834 427 795 q 543 898 501 872 q 623 924 585 923 q 693 895 662 925 q 712 844 713 874 q 692 795 711 814 q 642 775 671 775 q 592 797 612 776 q 503 819 555 833 q 414 751 451 804 q 632 666 547 743 q 718 479 718 589 q 625 284 718 363 q 385 205 532 205 q 231 235 298 209 q 172 181 172 221 q 184 151 172 162 q 229 136 197 140 q 287 131 261 132 q 368 130 313 130 q 385 130 380 130 q 637 80 553 130 q 721 -55 721 31 q 700 -147 721 -103 q 640 -226 679 -191 q 542 -281 602 -260 q 409 -301 481 -301 q 275 -286 336 -301 q 173 -247 213 -271 q 104 -192 133 -222 q 64 -133 76 -162 q 52 -79 52 -104 q 72 -29 52 -50 q 122 -9 93 -9 q 172 -29 151 -9 q 192 -79 192 -50 q 197 -127 192 -102 q 216 -181 201 -151 q 253 -232 230 -210 q 316 -270 275 -254 q 409 -285 357 -285 q 523 -270 474 -285 q 598 -231 572 -255 q 637 -180 625 -206 q 650 -127 650 -154 q 584 -19 650 -57 q 385 19 518 19 q 297 20 333 19 q 225 25 261 22 q 166 36 189 29 q 125 55 144 43 q 99 84 107 66 q 91 125 91 101 q 218 241 91 205 m 525 662 q 498 698 525 662 q 385 735 472 735 q 245 662 298 735 q 192 479 192 588 q 245 296 192 370 q 385 222 298 222 q 525 296 472 222 q 578 479 578 370 q 525 662 578 588 z "},"h":{"ha":861,"x_min":24,"x_max":839,"o":"m 741 85 q 760 30 741 43 q 839 16 778 16 l 839 0 q 671 0 789 2 q 501 0 553 -3 l 501 16 q 581 29 563 16 q 600 85 599 41 l 600 540 q 571 689 600 647 q 490 732 543 732 q 372 700 431 732 q 262 615 312 668 l 262 85 l 263 85 q 283 30 264 43 q 361 16 302 16 l 361 0 l 24 0 l 24 16 q 101 29 82 16 q 122 85 121 41 l 122 788 q 101 857 121 837 q 53 866 81 877 l 24 855 l 24 871 l 246 964 l 262 964 l 262 635 q 506 751 377 751 q 681 695 621 751 q 741 540 741 638 l 741 85 z "},"i":{"ha":395,"x_min":33,"x_max":371,"o":"m 273 85 q 293 30 273 43 q 371 16 313 16 l 371 0 l 33 0 l 33 16 q 112 28 94 16 q 132 85 130 41 l 132 557 q 108 635 132 621 q 33 624 83 648 l 33 640 l 256 733 l 273 733 l 273 85 m 218 774 q 158 780 187 764 q 121 825 130 795 q 127 885 112 856 q 173 922 142 913 q 232 916 203 931 q 269 870 260 901 q 263 811 279 840 q 218 774 248 783 z "},"j":{"ha":350,"x_min":-142,"x_max":267,"o":"m 244 793 q 232 782 244 793 q 189 770 221 770 q 135 793 157 770 q 112 848 112 816 q 135 902 112 880 q 189 925 157 925 q 244 902 221 925 q 267 848 267 880 q 244 793 267 816 m 28 640 l 250 733 l 267 733 l 267 56 q 261 -55 267 -10 q 242 -137 256 -99 q 203 -196 229 -175 q 139 -230 178 -218 q 42 -241 99 -241 q -87 -199 -32 -241 q -142 -100 -142 -156 q -121 -45 -142 -66 q -67 -23 -101 -23 q -3 -59 -23 -23 q -8 -132 16 -95 q -14 -197 -31 -168 q 45 -225 3 -225 q 92 -211 75 -225 q 116 -157 109 -197 q 125 -83 123 -116 q 126 26 126 -50 q 126 56 126 45 l 126 557 q 107 637 127 624 q 28 624 88 650 l 28 640 z "},"k":{"ha":819,"x_min":24,"x_max":804,"o":"m 663 85 q 721 28 696 41 q 804 16 745 16 l 804 0 q 709 -3 793 -3 q 545 -1 625 -3 l 467 0 l 467 16 q 517 18 502 16 q 542 26 532 19 q 546 46 551 33 q 523 85 541 60 l 361 309 l 262 173 l 262 85 l 263 85 q 280 30 263 43 q 361 16 298 16 l 361 0 l 24 0 l 24 16 q 104 28 87 16 q 122 85 121 40 l 122 788 q 103 867 123 854 q 24 855 84 880 l 24 871 l 246 964 l 262 964 l 262 196 l 536 573 q 571 685 591 652 q 454 717 551 717 l 454 733 l 791 733 l 791 717 q 666 691 715 720 q 552 573 617 663 l 431 406 l 663 85 z "},"l":{"ha":386,"x_min":24,"x_max":361,"o":"m 263 85 q 281 30 263 43 q 361 16 298 16 l 361 0 l 24 0 l 24 16 q 103 28 85 16 q 122 85 121 41 l 122 788 q 103 867 123 854 q 24 855 83 880 l 24 871 l 246 964 l 262 964 l 262 85 l 263 85 z "},"m":{"ha":1348,"x_min":33,"x_max":1326,"o":"m 1227 85 q 1246 30 1228 43 q 1326 16 1265 16 l 1326 0 q 1158 0 1276 2 q 989 0 1040 -3 l 989 16 q 1068 29 1050 16 q 1087 85 1086 41 l 1087 540 q 1058 689 1087 647 q 977 732 1029 732 q 856 699 917 732 q 742 607 794 665 q 750 540 750 576 l 750 85 q 769 30 751 43 q 848 16 787 16 l 848 0 q 680 0 798 2 q 511 0 562 -3 l 511 16 q 590 29 572 16 q 609 85 608 41 l 609 540 q 581 689 609 647 q 500 732 552 732 q 381 700 441 732 q 273 615 322 668 l 273 85 q 292 30 273 43 q 371 16 311 16 l 371 0 l 33 0 l 33 16 q 111 29 92 16 q 132 85 130 41 l 132 557 q 111 626 131 606 q 62 635 91 646 l 33 624 l 33 640 l 256 733 l 273 733 l 273 635 q 515 751 387 751 q 659 718 604 751 q 736 623 715 684 q 850 712 783 673 q 993 751 918 751 q 1168 695 1108 751 q 1227 540 1227 638 l 1227 85 z "},"n":{"ha":871,"x_min":33,"x_max":848,"o":"m 750 85 q 769 30 751 43 q 848 16 787 16 l 848 0 q 680 0 798 2 q 511 0 562 -3 l 511 16 q 590 29 572 16 q 609 85 608 41 l 609 540 q 581 689 609 647 q 500 732 552 732 q 381 700 441 732 q 273 615 322 668 l 273 85 q 292 30 273 43 q 371 16 311 16 l 371 0 l 33 0 l 33 16 q 111 29 92 16 q 132 85 130 41 l 132 557 q 111 626 131 606 q 62 635 91 646 l 33 624 l 33 640 l 256 733 l 273 733 l 273 635 q 515 751 387 751 q 690 695 631 751 q 750 540 750 638 l 750 85 z "},"o":{"ha":842,"x_min":50,"x_max":791,"o":"m 228 700 q 271 725 228 700 q 421 751 313 751 q 614 700 529 751 q 745 560 699 648 q 791 366 791 473 q 745 172 791 260 q 614 33 699 85 q 421 -19 529 -19 q 228 33 313 -19 q 96 173 142 85 q 50 366 50 260 q 96 560 50 472 q 228 700 142 648 m 299 47 q 326 22 299 47 q 421 -3 352 -3 q 543 47 490 -3 q 623 180 595 97 q 650 366 650 264 q 623 552 650 469 q 543 685 595 635 q 421 735 490 735 q 299 685 352 735 q 218 552 246 635 q 191 366 191 469 q 218 180 191 264 q 299 47 246 97 z "},"p":{"ha":887,"x_min":28,"x_max":833,"o":"m 469 751 q 607 726 542 751 q 723 654 672 701 q 804 533 774 607 q 833 366 833 458 q 805 197 833 271 q 728 76 777 122 q 613 5 678 29 q 469 -19 547 -19 q 342 8 394 -19 q 267 85 290 35 l 267 -145 q 288 -201 268 -188 q 366 -214 307 -214 l 366 -231 l 28 -231 l 28 -214 q 92 -207 71 -214 q 120 -186 113 -200 q 126 -145 126 -173 l 126 555 q 106 638 125 626 q 28 624 87 650 l 28 640 l 251 733 l 267 733 l 267 669 q 469 751 340 751 m 469 -3 q 575 26 530 -3 q 644 106 619 54 q 681 222 669 158 q 693 366 693 286 q 669 549 693 467 q 593 683 645 631 q 469 735 541 735 q 319 658 371 735 q 267 445 267 581 l 267 165 q 323 41 267 85 q 469 -3 380 -3 z "},"q":{"ha":844,"x_min":53,"x_max":859,"o":"m 417 -19 q 274 5 339 -19 q 159 76 208 29 q 81 197 109 122 q 53 366 53 271 q 83 533 53 458 q 163 654 113 607 q 279 726 214 701 q 417 751 345 751 q 624 664 554 751 q 666 639 645 639 q 721 664 698 639 q 744 733 744 689 l 760 733 l 760 -145 q 781 -201 761 -188 q 859 -214 800 -214 l 859 -231 l 521 -231 l 521 -214 q 601 -200 582 -214 q 619 -145 619 -185 l 619 85 q 544 8 596 35 q 417 -19 492 -19 m 417 735 q 293 683 345 735 q 217 549 241 631 q 193 366 193 467 q 205 222 193 287 q 242 106 217 158 q 312 26 267 54 q 417 -3 356 -3 q 563 41 507 -3 q 619 165 619 85 l 619 445 q 567 658 619 581 q 417 735 515 735 z "},"r":{"ha":680,"x_min":33,"x_max":656,"o":"m 273 592 q 503 751 376 751 q 564 742 537 751 q 608 717 591 732 q 636 682 625 702 q 652 641 648 661 q 656 598 656 620 q 636 549 656 570 q 587 528 616 528 q 530 556 551 528 q 519 617 509 584 q 509 679 527 653 q 452 705 491 705 q 364 673 406 705 q 273 566 321 641 l 273 85 q 293 36 273 56 q 342 16 313 16 l 371 16 l 371 0 l 273 0 l 273 0 l 33 0 l 33 16 l 62 16 q 111 36 91 16 q 132 85 131 56 l 132 557 q 111 626 131 606 q 62 635 91 646 l 33 624 l 33 640 l 256 733 l 273 733 l 273 592 z "},"s":{"ha":772,"x_min":58,"x_max":724,"o":"m 188 593 q 206 529 188 556 q 256 486 224 502 q 327 458 287 469 q 412 437 367 446 q 501 417 456 427 q 585 391 545 408 q 656 353 625 375 q 706 295 688 331 q 724 210 724 258 q 708 122 724 162 q 656 50 692 83 q 555 -1 620 18 q 401 -19 490 -19 q 249 1 316 -19 q 142 53 182 20 q 81 123 102 85 q 60 202 60 161 q 81 252 60 231 q 131 273 102 273 q 181 252 160 273 q 201 202 201 231 q 238 49 194 101 q 401 -3 281 -3 q 551 42 505 -3 q 598 158 598 87 q 580 222 598 195 q 530 266 562 249 q 458 294 498 282 q 373 316 418 307 q 283 337 328 326 q 198 364 239 347 q 126 403 158 380 q 77 463 95 426 q 58 547 58 499 q 100 658 58 610 q 210 728 142 705 q 357 751 277 751 q 580 699 488 751 q 671 572 671 646 q 651 522 671 543 q 601 501 630 501 q 551 522 572 501 q 530 572 530 543 q 524 626 530 601 q 500 677 517 651 q 447 720 484 704 q 357 735 410 735 q 232 693 276 735 q 188 593 188 651 z "},"t":{"ha":484,"x_min":21,"x_max":473,"o":"m 467 19 l 473 9 q 368 -19 435 -19 q 173 46 227 -19 q 119 268 119 111 l 119 650 q 119 672 119 664 q 117 689 119 681 q 113 701 115 697 q 106 709 111 705 q 96 713 102 713 q 82 716 90 714 q 63 717 73 718 q 39 717 52 716 q 21 717 27 717 l 21 733 q 103 743 66 733 q 162 768 139 753 q 201 806 185 782 q 226 849 218 830 q 238 897 234 869 q 243 940 242 926 q 243 979 243 955 l 260 979 l 260 733 l 401 733 l 401 717 l 260 717 l 260 268 q 262 171 260 211 q 273 96 265 132 q 296 41 281 61 q 333 9 310 20 q 387 -3 355 -3 q 467 19 435 -3 z "},"u":{"ha":868,"x_min":21,"x_max":836,"o":"m 836 717 q 756 704 774 717 q 737 647 737 691 l 737 178 q 745 123 737 142 q 775 98 753 104 q 836 109 798 92 l 836 93 l 613 0 l 597 0 l 597 68 q 513 5 568 30 q 387 -19 457 -19 q 119 193 119 -19 l 119 647 q 102 702 120 688 q 21 717 83 717 l 21 733 l 359 733 l 359 717 q 304 712 326 717 q 274 696 283 707 q 262 674 265 685 q 260 647 260 664 l 260 193 q 298 41 260 85 q 410 -3 336 -3 q 523 26 471 -3 q 597 98 575 56 l 597 647 q 579 702 597 688 q 498 717 560 717 l 498 733 l 836 733 l 836 717 z "},"v":{"ha":815,"x_min":7,"x_max":808,"o":"m 584 604 q 656 704 600 674 q 808 733 713 733 l 808 717 q 763 713 783 717 q 722 699 743 709 q 683 665 700 688 q 654 608 666 642 q 623 484 640 565 q 580 316 606 404 q 515 138 555 228 l 452 0 l 436 0 l 144 647 q 99 703 124 690 q 7 717 74 717 l 7 733 l 345 733 l 345 717 q 298 712 315 717 q 277 696 281 707 q 275 675 273 686 q 285 647 277 664 l 509 153 q 552 299 537 226 q 569 420 567 372 q 574 521 571 469 q 584 604 577 574 z "},"w":{"ha":1183,"x_min":7,"x_max":1175,"o":"m 944 604 q 1019 703 960 673 q 1175 733 1078 733 l 1175 717 q 1129 713 1149 717 q 1085 699 1108 709 q 1044 665 1062 688 q 1014 608 1025 642 q 984 480 1000 564 q 946 307 969 395 q 881 136 922 218 l 820 0 l 804 0 q 536 646 590 517 q 486 695 517 689 q 450 677 461 700 q 446 657 446 669 q 463 589 446 633 q 499 496 479 545 q 534 391 519 447 q 548 272 550 336 q 521 151 547 208 l 452 0 l 436 0 l 144 647 q 99 703 124 690 q 7 717 74 717 l 7 733 l 345 733 l 345 717 q 298 712 315 717 q 277 696 281 707 q 275 675 273 686 q 285 647 277 664 l 507 156 q 533 275 532 212 q 519 394 535 338 q 484 498 504 450 q 448 591 465 547 q 432 659 432 635 q 451 720 432 693 q 499 759 470 747 q 559 771 528 770 q 619 752 591 771 q 661 698 647 733 q 875 152 827 276 q 924 334 912 245 q 936 497 935 423 q 944 604 936 570 z "},"x":{"ha":926,"x_min":16,"x_max":910,"o":"m 748 85 q 813 29 781 42 q 910 16 846 16 l 910 0 l 573 0 l 573 16 q 631 32 625 16 q 607 85 637 47 l 425 330 l 307 171 q 268 107 279 135 q 260 62 257 79 q 277 35 263 45 q 310 20 291 24 q 353 16 328 16 l 353 0 l 16 0 l 16 16 q 168 51 110 16 q 290 171 226 85 l 416 340 l 187 647 q 116 703 155 690 q 24 717 77 717 l 24 733 l 362 733 l 362 717 q 330 716 342 719 q 310 707 317 714 q 307 685 302 700 q 328 647 311 669 l 498 419 l 606 562 q 650 640 640 607 q 650 689 661 672 q 616 713 639 707 q 559 717 593 720 l 559 733 q 726 733 604 733 q 897 733 848 734 l 897 717 q 622 562 744 724 l 507 408 l 748 85 z "},"y":{"ha":815,"x_min":7,"x_max":808,"o":"m 581 604 q 655 704 597 674 q 808 733 712 733 l 808 717 q 763 713 783 717 q 720 699 743 709 q 681 665 698 688 q 652 608 663 642 q 611 458 632 549 q 562 273 591 368 q 481 63 533 178 q 433 -40 453 0 q 388 -116 412 -79 q 340 -172 363 -153 q 289 -203 317 -192 q 225 -214 260 -214 q 128 -177 167 -214 q 91 -91 89 -140 q 113 -43 92 -64 q 161 -23 134 -23 q 212 -44 191 -23 q 232 -94 232 -64 q 245 -142 232 -121 q 290 -163 258 -163 q 436 0 364 -163 l 144 647 q 99 703 124 690 q 7 717 74 717 l 7 733 l 345 733 l 345 717 q 298 712 315 717 q 277 696 281 707 q 275 675 273 686 q 285 647 277 664 l 506 157 q 551 328 538 241 q 569 493 564 416 q 581 604 573 570 z "},"z":{"ha":688,"x_min":29,"x_max":648,"o":"m 632 222 l 648 222 l 648 0 l 29 0 l 473 717 l 283 717 q 213 712 242 717 q 163 696 183 708 q 131 671 142 685 q 112 631 119 656 q 103 578 105 605 q 101 511 101 552 l 85 511 l 85 733 l 613 733 l 613 718 l 179 16 l 450 16 q 520 21 490 16 q 570 38 549 26 q 602 65 590 50 q 621 106 614 81 q 630 157 628 131 q 632 222 632 183 z "},"{":{"ha":342,"x_min":77,"x_max":298,"o":"m 208 670 q 194 540 208 583 q 136 482 180 497 q 194 424 180 467 q 208 294 208 380 q 221 43 208 90 q 298 -3 235 -3 l 298 -19 q 246 -18 267 -19 q 207 -8 225 -16 q 178 6 189 0 q 159 34 168 13 q 147 72 151 56 q 141 129 143 89 q 138 200 138 169 q 138 294 138 231 q 125 436 138 399 q 77 474 113 474 l 77 490 q 125 528 113 490 q 138 670 138 565 q 138 764 138 732 q 141 835 138 795 q 147 891 143 875 q 159 929 151 908 q 178 957 168 951 q 207 972 189 964 q 246 981 225 980 q 298 983 267 983 l 298 966 q 221 920 235 966 q 208 670 208 874 z "},"|":{"ha":251,"x_min":90,"x_max":161,"o":"m 161 -19 l 90 -19 l 90 983 l 161 983 l 161 -19 z "},"}":{"ha":342,"x_min":45,"x_max":267,"o":"m 205 670 q 218 528 205 565 q 267 490 230 490 l 267 474 q 218 436 230 474 q 205 294 205 399 q 205 200 205 231 q 202 129 205 169 q 196 72 200 89 q 184 34 193 56 q 165 6 176 13 q 136 -8 155 0 q 97 -18 118 -16 q 45 -19 76 -19 l 45 -3 q 122 43 109 -3 q 135 294 135 90 q 149 424 135 380 q 207 482 163 467 q 149 540 163 497 q 135 670 135 583 q 122 920 135 874 q 45 966 109 966 l 45 983 q 97 981 76 983 q 136 972 118 980 q 165 957 155 964 q 184 929 176 951 q 196 891 193 908 q 202 835 200 875 q 205 764 205 795 q 205 670 205 732 z "},"~":{"ha":626,"x_min":61,"x_max":565,"o":"m 532 587 l 565 587 q 557 490 565 531 q 537 425 549 449 q 508 387 526 401 q 473 368 490 373 q 436 363 456 363 q 394 372 420 362 q 353 390 369 381 q 299 418 336 398 q 248 446 266 437 q 202 467 231 454 q 158 478 173 479 q 125 471 142 477 q 101 442 109 465 q 94 385 94 420 l 61 385 q 73 490 61 446 q 106 557 85 534 q 150 591 127 581 q 199 601 173 601 q 275 579 228 601 q 364 537 323 558 q 445 503 406 515 q 508 510 485 490 q 532 587 532 529 z "}," ":{"ha":500,"x_min":0,"x_max":0,"o":""},"©":{"ha":987,"x_min":75,"x_max":912,"o":"m 829 385 l 844 380 q 726 205 813 275 q 534 136 640 136 q 363 164 439 136 q 239 240 287 192 q 167 349 192 288 q 142 477 142 409 q 240 732 142 636 q 528 829 338 829 q 641 809 589 829 q 727 759 693 790 q 783 689 761 728 q 814 613 806 651 q 817 542 822 575 q 816 537 817 541 q 815 533 815 534 l 814 533 q 789 495 808 510 q 747 481 770 481 q 697 502 718 481 q 676 551 676 522 q 680 574 676 564 l 680 574 q 682 577 681 575 q 682 579 682 578 q 694 644 694 610 q 683 707 694 677 q 652 760 672 736 q 599 798 631 784 q 528 812 567 812 q 437 794 478 812 q 368 745 397 777 q 320 671 340 714 q 292 580 301 629 q 283 477 283 531 q 299 353 283 411 q 344 250 314 296 q 423 178 374 205 q 534 152 472 152 q 716 218 634 152 q 829 385 798 285 m 331 867 q 370 884 331 867 q 494 901 408 901 q 656 867 579 901 q 790 778 734 834 q 879 645 846 722 q 912 482 912 568 q 856 272 912 368 q 704 119 800 176 q 494 63 608 63 q 283 119 380 63 q 131 272 187 176 q 75 482 75 368 q 109 645 75 568 q 198 778 142 722 q 331 867 254 834 m 337 111 q 374 95 337 111 q 494 79 412 79 q 650 111 576 79 q 779 197 725 143 q 864 326 832 251 q 896 482 896 400 q 842 684 896 591 q 695 830 788 777 q 494 884 603 884 q 292 830 385 884 q 145 684 199 777 q 92 482 92 591 q 123 326 92 400 q 209 197 155 251 q 337 111 262 143 z "},"­":{"ha":0,"x_min":0,"x_max":0,"o":""},"®":{"ha":562,"x_min":68,"x_max":494,"o":"m 386 666 q 408 688 408 666 l 412 686 q 403 645 412 663 q 372 627 394 627 q 345 639 355 627 q 330 669 334 652 q 320 705 325 687 q 306 735 316 722 q 279 747 296 747 q 233 732 248 747 q 218 681 218 718 l 218 656 q 224 643 218 648 q 238 637 230 637 l 246 637 l 246 632 l 150 632 l 150 637 l 158 637 q 172 643 166 637 q 178 656 178 648 l 178 882 q 172 896 178 890 q 158 902 166 902 l 150 902 l 150 907 l 178 907 q 214 909 182 907 q 278 912 246 912 q 370 890 339 912 q 401 830 401 868 q 307 749 401 758 q 338 729 327 743 q 353 701 350 715 q 365 677 357 688 q 386 666 372 666 m 279 752 q 340 775 321 752 q 360 830 360 798 q 340 886 360 864 q 278 907 321 907 q 218 882 218 907 l 218 736 q 279 752 237 752 m 130 920 q 161 951 130 920 q 281 983 193 983 q 432 921 370 983 q 494 770 494 859 q 432 618 494 681 q 281 556 370 556 q 130 618 193 556 q 68 770 68 681 q 130 920 68 858 m 142 630 q 171 601 142 630 q 281 572 200 572 q 420 630 363 572 q 478 770 478 688 q 420 909 478 851 q 281 966 363 966 q 142 909 200 966 q 84 770 84 851 q 142 630 84 688 z "},"À":{"ha":812,"x_min":28,"x_max":812,"o":"m 783 16 l 812 16 l 812 0 l 507 0 l 507 16 l 536 16 q 568 21 557 16 q 582 40 578 25 q 572 85 585 56 l 572 85 l 459 382 q 416 355 433 379 q 388 296 398 332 q 369 219 378 261 q 348 135 360 176 q 317 58 335 93 q 267 2 300 24 q 189 -19 234 -19 q 129 -8 157 -19 q 76 30 100 3 q 40 95 52 56 q 36 196 28 134 q 72 334 43 258 l 313 964 l 377 964 l 713 85 q 742 29 730 41 q 783 16 755 16 m 189 122 q 257 136 229 122 q 303 174 286 151 q 333 225 320 197 q 356 282 346 254 q 378 336 367 311 q 409 377 390 360 q 453 397 427 394 l 283 842 l 88 334 q 69 235 67 275 q 93 169 71 194 q 139 133 115 144 q 189 122 164 122 m 347 999 q 332 1022 347 1012 q 297 1039 317 1031 q 255 1056 276 1046 q 220 1085 235 1066 q 205 1129 205 1103 q 226 1179 205 1158 q 276 1200 247 1200 q 336 1164 316 1200 q 363 999 363 1122 l 347 999 z "},"Á":{"ha":812,"x_min":28,"x_max":812,"o":"m 783 16 l 812 16 l 812 0 l 507 0 l 507 16 l 536 16 q 568 21 557 16 q 582 40 578 25 q 572 85 585 56 l 572 85 l 459 382 q 416 355 433 379 q 388 296 398 332 q 369 219 378 261 q 348 135 360 176 q 317 58 335 93 q 267 2 300 24 q 189 -19 234 -19 q 129 -8 157 -19 q 76 30 100 3 q 40 95 52 56 q 36 196 28 134 q 72 334 43 258 l 313 964 l 377 964 l 713 85 q 742 29 730 41 q 783 16 755 16 m 189 122 q 257 136 229 122 q 303 174 286 151 q 333 225 320 197 q 356 282 346 254 q 378 336 367 311 q 409 377 390 360 q 453 397 427 394 l 283 842 l 88 334 q 69 235 67 275 q 93 169 71 194 q 139 133 115 144 q 189 122 164 122 m 494 1129 q 479 1085 494 1103 q 444 1056 465 1066 q 403 1039 423 1046 q 368 1022 382 1031 q 353 999 353 1012 l 337 999 q 363 1164 337 1123 q 424 1200 383 1200 q 473 1179 453 1200 q 494 1129 494 1158 z "},"Â":{"ha":812,"x_min":28,"x_max":812,"o":"m 783 16 l 812 16 l 812 0 l 507 0 l 507 16 l 536 16 q 568 21 557 16 q 582 40 578 25 q 572 85 585 56 l 572 85 l 459 382 q 416 355 433 379 q 388 296 398 332 q 369 219 378 261 q 348 135 360 176 q 317 58 335 93 q 267 2 300 24 q 189 -19 234 -19 q 129 -8 157 -19 q 76 30 100 3 q 40 95 52 56 q 36 196 28 134 q 72 334 43 258 l 313 964 l 377 964 l 713 85 q 742 29 730 41 q 783 16 755 16 m 189 122 q 257 136 229 122 q 303 174 286 151 q 333 225 320 197 q 356 282 346 254 q 378 336 367 311 q 409 377 390 360 q 453 397 427 394 l 283 842 l 88 334 q 69 235 67 275 q 93 169 71 194 q 139 133 115 144 q 189 122 164 122 m 256 1010 q 251 1003 254 1008 q 245 996 247 998 l 222 996 l 315 1202 l 372 1202 l 464 996 l 439 996 l 345 1128 q 256 1010 280 1046 z "},"Ã":{"ha":812,"x_min":28,"x_max":812,"o":"m 783 16 l 812 16 l 812 0 l 507 0 l 507 16 l 536 16 q 568 21 557 16 q 582 40 578 25 q 572 85 585 56 l 572 85 l 459 382 q 416 355 433 379 q 388 296 398 332 q 369 219 378 261 q 348 135 360 176 q 317 58 335 93 q 267 2 300 24 q 189 -19 234 -19 q 129 -8 157 -19 q 76 30 100 3 q 40 95 52 56 q 36 196 28 134 q 72 334 43 258 l 313 964 l 377 964 l 713 85 q 742 29 730 41 q 783 16 755 16 m 189 122 q 257 136 229 122 q 303 174 286 151 q 333 225 320 197 q 356 282 346 254 q 378 336 367 311 q 409 377 390 360 q 453 397 427 394 l 283 842 l 88 334 q 69 235 67 275 q 93 169 71 194 q 139 133 115 144 q 189 122 164 122 m 416 1040 q 379 1052 403 1040 q 333 1076 355 1063 q 291 1095 311 1088 q 257 1093 270 1103 q 245 1051 245 1082 l 229 1051 q 248 1134 229 1109 q 297 1158 268 1158 q 335 1148 311 1158 q 379 1126 359 1137 q 420 1109 400 1116 q 451 1113 439 1103 q 463 1152 463 1122 l 479 1152 q 462 1064 479 1087 q 416 1040 444 1041 z "},"Ä":{"ha":812,"x_min":28,"x_max":812,"o":"m 783 16 l 812 16 l 812 0 l 507 0 l 507 16 l 536 16 q 568 21 557 16 q 582 40 578 25 q 572 85 585 56 l 572 85 l 459 382 q 416 355 433 379 q 388 296 398 332 q 369 219 378 261 q 348 135 360 176 q 317 58 335 93 q 267 2 300 24 q 189 -19 234 -19 q 129 -8 157 -19 q 76 30 100 3 q 40 95 52 56 q 36 196 28 134 q 72 334 43 258 l 313 964 l 377 964 l 713 85 q 742 29 730 41 q 783 16 755 16 m 189 122 q 257 136 229 122 q 303 174 286 151 q 333 225 320 197 q 356 282 346 254 q 378 336 367 311 q 409 377 390 360 q 453 397 427 394 l 283 842 l 88 334 q 69 235 67 275 q 93 169 71 194 q 139 133 115 144 q 189 122 164 122 m 304 1056 q 295 1047 304 1056 q 260 1038 286 1038 q 217 1056 235 1038 q 199 1099 199 1074 q 217 1143 199 1124 q 260 1161 235 1161 q 304 1143 286 1161 q 322 1099 322 1124 q 304 1056 322 1074 m 471 1056 q 462 1047 471 1056 q 427 1038 453 1038 q 384 1056 401 1038 q 366 1099 366 1074 q 384 1143 366 1124 q 427 1161 401 1161 q 471 1143 453 1161 q 490 1099 490 1124 q 471 1056 490 1074 z "},"Å":{"ha":812,"x_min":28,"x_max":812,"o":"m 783 16 l 812 16 l 812 0 l 507 0 l 507 16 l 536 16 q 568 21 557 16 q 582 40 578 25 q 572 85 585 56 l 572 85 l 459 382 q 416 355 433 379 q 388 296 398 332 q 369 219 378 261 q 348 135 360 176 q 317 58 335 93 q 267 2 300 24 q 189 -19 234 -19 q 129 -8 157 -19 q 76 30 100 3 q 40 95 52 56 q 36 196 28 134 q 72 334 43 258 l 313 964 l 377 964 l 713 85 q 742 29 730 41 q 783 16 755 16 m 189 122 q 257 136 229 122 q 303 174 286 151 q 333 225 320 197 q 356 282 346 254 q 378 336 367 311 q 409 377 390 360 q 453 397 427 394 l 283 842 l 88 334 q 69 235 67 275 q 93 169 71 194 q 139 133 115 144 q 189 122 164 122 m 399 1044 q 388 1032 399 1044 q 344 1021 376 1021 q 288 1044 311 1021 q 265 1099 265 1067 q 288 1155 265 1132 q 344 1178 311 1178 q 399 1155 376 1178 q 422 1099 422 1132 q 399 1044 422 1067 m 375 1131 q 369 1137 375 1131 q 344 1143 362 1143 q 313 1131 326 1143 q 300 1099 300 1118 q 313 1068 300 1081 q 344 1055 326 1055 q 375 1068 362 1055 q 388 1099 388 1081 q 375 1131 388 1118 z "},"Æ":{"ha":1185,"x_min":28,"x_max":1120,"o":"m 1104 342 l 1120 342 l 1120 0 l 427 0 l 427 16 l 456 16 q 506 36 486 16 q 526 85 526 56 l 526 535 l 474 535 q 423 520 444 535 q 392 481 402 506 q 377 431 381 456 q 372 377 372 406 q 363 219 372 288 q 334 95 355 151 q 277 11 314 40 q 189 -19 241 -19 q 129 -8 157 -19 q 76 30 100 3 q 40 95 52 56 q 36 196 28 134 q 72 334 43 258 q 105 423 84 367 q 139 513 126 479 q 172 599 152 548 q 207 682 193 650 q 243 756 222 714 q 281 824 264 798 q 321 879 298 850 q 366 924 345 908 q 414 951 388 940 q 467 964 439 962 l 1086 964 l 1086 622 l 1070 622 l 1070 650 q 1066 717 1070 682 q 1050 794 1062 752 q 1018 870 1038 837 q 965 925 999 903 q 888 947 931 947 l 736 947 q 687 927 707 947 q 667 878 667 907 l 667 551 l 844 551 q 921 572 897 551 q 940 616 946 592 l 933 645 l 949 648 l 972 551 l 976 535 l 1027 319 l 1011 316 l 1004 344 q 935 482 983 429 q 813 535 886 535 l 667 535 l 667 85 q 687 36 667 56 q 736 16 707 16 l 922 16 q 999 39 965 16 q 1052 94 1033 61 q 1084 169 1072 127 q 1100 247 1096 212 q 1104 313 1104 281 l 1104 342 m 526 551 l 526 821 q 496 891 526 864 q 427 918 467 918 q 390 910 408 918 q 354 890 371 903 q 320 853 338 877 q 288 806 302 830 q 255 745 273 783 q 222 675 237 708 q 188 593 208 642 q 152 503 168 543 q 114 402 137 462 q 88 334 97 357 q 69 235 67 275 q 93 169 71 194 q 139 133 115 144 q 189 122 164 122 q 310 190 264 122 q 356 377 356 258 q 361 438 356 410 q 379 493 367 467 q 416 536 391 520 q 474 551 440 551 l 526 551 z "},"Ç":{"ha":968,"x_min":49,"x_max":926,"o":"m 911 313 l 926 309 q 890 207 910 252 q 839 118 870 161 q 768 45 807 75 q 672 -1 728 16 q 549 -19 616 -19 q 366 9 450 -19 q 312 19 327 21 q 293 3 298 18 q 301 -29 288 -12 q 354 -59 313 -45 q 435 -115 414 -79 q 441 -193 456 -151 q 423 -229 435 -214 q 392 -255 412 -244 q 345 -265 372 -266 q 280 -254 318 -264 q 228 -223 248 -243 q 201 -181 208 -203 q 197 -140 195 -159 q 208 -108 199 -120 l 208 -107 l 209 -106 l 210 -106 l 210 -106 q 234 -99 220 -94 q 248 -111 243 -102 q 249 -129 252 -119 q 245 -135 248 -130 l 245 -136 l 243 -137 q 230 -175 231 -153 q 242 -218 229 -197 q 281 -248 256 -239 q 397 -178 364 -276 q 400 -110 412 -143 q 353 -64 389 -77 q 284 -24 300 -46 q 277 29 267 -3 q 288 44 280 38 q 111 223 174 107 q 49 482 49 339 q 84 677 49 585 q 181 837 119 769 q 331 943 242 904 q 521 983 419 983 q 640 970 585 983 q 735 935 695 957 q 805 884 774 913 q 853 822 836 855 q 879 755 871 789 q 886 689 888 721 q 873 629 884 656 l 873 628 l 873 627 q 872 625 873 625 l 872 625 q 846 594 864 606 q 808 583 829 583 q 758 603 779 583 q 737 653 737 624 q 741 675 737 667 l 741 675 q 744 684 743 681 q 761 765 760 724 q 746 842 762 806 q 701 906 730 878 q 625 950 672 934 q 521 966 578 966 q 348 901 424 966 q 230 726 271 836 q 189 482 189 616 q 202 329 189 401 q 243 196 215 258 q 313 91 271 135 q 414 22 354 47 q 549 -3 475 -3 q 911 313 821 -3 z "},"È":{"ha":791,"x_min":32,"x_max":725,"o":"m 709 342 l 725 342 l 725 0 l 32 0 l 32 16 l 61 16 q 110 36 90 16 q 130 85 130 56 l 130 878 q 110 927 130 907 q 61 947 90 947 l 32 947 l 32 964 l 691 964 l 691 622 l 675 622 l 675 650 q 671 717 675 682 q 654 794 667 752 q 623 870 642 837 q 570 925 604 903 q 492 947 536 947 l 340 947 q 291 927 311 947 q 271 878 271 907 l 271 446 q 448 543 311 523 q 527 571 505 551 q 545 616 550 592 l 538 645 l 553 648 l 576 551 l 581 535 l 631 319 l 616 316 l 609 344 q 537 484 587 431 q 417 522 488 536 q 308 469 344 506 q 271 368 271 432 l 271 85 q 291 36 271 56 q 340 16 311 16 l 526 16 q 604 39 570 16 q 657 94 637 61 q 688 169 676 127 q 705 247 701 212 q 709 313 709 281 l 709 342 m 416 999 q 402 1022 416 1012 q 367 1039 387 1031 q 326 1056 346 1046 q 291 1085 305 1066 q 276 1129 276 1103 q 297 1179 276 1158 q 347 1200 317 1200 q 407 1164 387 1200 q 433 999 433 1123 l 416 999 z "},"É":{"ha":791,"x_min":32,"x_max":725,"o":"m 709 342 l 725 342 l 725 0 l 32 0 l 32 16 l 61 16 q 110 36 90 16 q 130 85 130 56 l 130 878 q 110 927 130 907 q 61 947 90 947 l 32 947 l 32 964 l 691 964 l 691 622 l 675 622 l 675 650 q 671 717 675 682 q 654 794 667 752 q 623 870 642 837 q 570 925 604 903 q 492 947 536 947 l 340 947 q 291 927 311 947 q 271 878 271 907 l 271 446 q 448 543 311 523 q 527 571 505 551 q 545 616 550 592 l 538 645 l 553 648 l 576 551 l 581 535 l 631 319 l 616 316 l 609 344 q 537 484 587 431 q 417 522 488 536 q 308 469 344 506 q 271 368 271 432 l 271 85 q 291 36 271 56 q 340 16 311 16 l 526 16 q 604 39 570 16 q 657 94 637 61 q 688 169 676 127 q 705 247 701 212 q 709 313 709 281 l 709 342 m 558 1129 q 544 1085 558 1103 q 508 1056 529 1066 q 467 1039 488 1046 q 432 1022 446 1031 q 417 999 417 1012 l 401 999 q 427 1164 401 1122 q 488 1200 448 1200 q 537 1179 517 1200 q 558 1129 558 1158 z "},"Ê":{"ha":791,"x_min":32,"x_max":725,"o":"m 709 342 l 725 342 l 725 0 l 32 0 l 32 16 l 61 16 q 110 36 90 16 q 130 85 130 56 l 130 878 q 110 927 130 907 q 61 947 90 947 l 32 947 l 32 964 l 691 964 l 691 622 l 675 622 l 675 650 q 671 717 675 682 q 654 794 667 752 q 623 870 642 837 q 570 925 604 903 q 492 947 536 947 l 340 947 q 291 927 311 947 q 271 878 271 907 l 271 446 q 448 543 311 523 q 527 571 505 551 q 545 616 550 592 l 538 645 l 553 648 l 576 551 l 581 535 l 631 319 l 616 316 l 609 344 q 537 484 587 431 q 417 522 488 536 q 308 469 344 506 q 271 368 271 432 l 271 85 q 291 36 271 56 q 340 16 311 16 l 526 16 q 604 39 570 16 q 657 94 637 61 q 688 169 676 127 q 705 247 701 212 q 709 313 709 281 l 709 342 m 334 1010 q 329 1003 332 1008 q 323 996 326 998 l 299 996 l 393 1202 l 450 1202 l 541 996 l 516 996 l 422 1128 q 334 1010 357 1046 z "},"Ë":{"ha":791,"x_min":32,"x_max":725,"o":"m 709 342 l 725 342 l 725 0 l 32 0 l 32 16 l 61 16 q 110 36 90 16 q 130 85 130 56 l 130 878 q 110 927 130 907 q 61 947 90 947 l 32 947 l 32 964 l 691 964 l 691 622 l 675 622 l 675 650 q 671 717 675 682 q 654 794 667 752 q 623 870 642 837 q 570 925 604 903 q 492 947 536 947 l 340 947 q 291 927 311 947 q 271 878 271 907 l 271 446 q 448 543 311 523 q 527 571 505 551 q 545 616 550 592 l 538 645 l 553 648 l 576 551 l 581 535 l 631 319 l 616 316 l 609 344 q 537 484 587 431 q 417 522 488 536 q 308 469 344 506 q 271 368 271 432 l 271 85 q 291 36 271 56 q 340 16 311 16 l 526 16 q 604 39 570 16 q 657 94 637 61 q 688 169 676 127 q 705 247 701 212 q 709 313 709 281 l 709 342 m 311 1039 q 264 1045 286 1032 q 235 1082 242 1057 q 241 1129 229 1107 q 278 1158 254 1152 q 325 1153 303 1165 q 354 1116 347 1141 q 348 1068 361 1090 q 311 1039 336 1046 m 479 1039 q 431 1045 454 1032 q 402 1082 409 1057 q 408 1129 395 1107 q 446 1158 421 1152 q 493 1153 471 1165 q 522 1116 515 1140 q 516 1068 528 1090 q 479 1039 503 1046 z "},"Ì":{"ha":402,"x_min":32,"x_max":370,"o":"m 340 947 q 291 927 311 947 q 271 878 271 907 l 271 85 q 291 36 271 56 q 340 16 311 16 l 370 16 l 370 0 l 32 0 l 32 16 l 61 16 q 110 36 90 16 q 130 85 130 56 l 130 878 q 110 927 130 907 q 61 947 90 947 l 32 947 l 32 964 l 370 964 l 370 947 l 340 947 m 173 999 q 158 1022 173 1012 q 123 1039 144 1031 q 82 1056 102 1046 q 46 1085 61 1066 q 32 1129 32 1103 q 53 1179 32 1158 q 102 1200 73 1200 q 163 1164 142 1200 q 189 999 189 1122 l 173 999 z "},"Í":{"ha":402,"x_min":32,"x_max":370,"o":"m 340 947 q 291 927 311 947 q 271 878 271 907 l 271 85 q 291 36 271 56 q 340 16 311 16 l 370 16 l 370 0 l 32 0 l 32 16 l 61 16 q 110 36 90 16 q 130 85 130 56 l 130 878 q 110 927 130 907 q 61 947 90 947 l 32 947 l 32 964 l 370 964 l 370 947 l 340 947 m 343 1129 q 329 1085 343 1103 q 293 1056 314 1066 q 252 1039 273 1046 q 217 1022 231 1031 q 202 999 202 1012 l 186 999 q 212 1164 186 1122 q 273 1200 233 1200 q 322 1179 302 1200 q 343 1129 343 1158 z "},"Î":{"ha":402,"x_min":32,"x_max":370,"o":"m 340 947 q 291 927 311 947 q 271 878 271 907 l 271 85 q 291 36 271 56 q 340 16 311 16 l 370 16 l 370 0 l 32 0 l 32 16 l 61 16 q 110 36 90 16 q 130 85 130 56 l 130 878 q 110 927 130 907 q 61 947 90 947 l 32 947 l 32 964 l 370 964 l 370 947 l 340 947 m 115 1010 q 109 1003 113 1008 q 104 996 106 998 l 80 996 l 173 1202 l 230 1202 l 321 996 l 297 996 l 203 1128 q 115 1010 138 1046 z "},"Ï":{"ha":402,"x_min":32,"x_max":370,"o":"m 340 947 q 291 927 311 947 q 271 878 271 907 l 271 85 q 291 36 271 56 q 340 16 311 16 l 370 16 l 370 0 l 32 0 l 32 16 l 61 16 q 110 36 90 16 q 130 85 130 56 l 130 878 q 110 927 130 907 q 61 947 90 947 l 32 947 l 32 964 l 370 964 l 370 947 l 340 947 m 134 1039 q 86 1045 109 1032 q 58 1082 64 1058 q 63 1129 51 1107 q 100 1158 76 1152 q 148 1153 125 1165 q 176 1116 170 1141 q 171 1068 183 1090 q 134 1039 158 1046 m 335 1063 q 327 1053 335 1063 q 294 1038 319 1042 q 249 1049 269 1034 q 224 1090 228 1064 q 235 1136 220 1116 q 275 1160 250 1156 q 321 1149 300 1164 q 346 1109 342 1135 q 335 1063 350 1084 z "},"Ð":{"ha":1029,"x_min":35,"x_max":979,"o":"m 484 983 q 844 845 709 983 q 979 482 979 708 q 952 306 979 388 q 879 165 924 223 q 775 64 833 106 q 653 1 716 22 q 528 -19 590 -19 q 372 11 433 -19 q 288 96 311 40 l 192 0 l 52 0 l 52 16 l 81 16 q 130 36 110 16 q 151 85 151 56 l 151 505 l 35 505 l 35 535 l 151 535 l 151 878 q 130 927 151 907 q 81 947 110 947 l 52 947 l 52 964 l 151 964 q 273 973 177 964 q 484 983 369 983 m 528 -3 q 610 11 570 -3 q 693 59 651 24 q 767 148 736 94 q 819 287 799 201 q 839 482 839 374 q 798 728 839 619 q 675 902 757 837 q 484 966 594 966 q 395 962 432 966 q 338 950 359 957 q 307 930 318 943 q 294 907 296 918 q 291 878 291 896 l 291 535 l 564 535 l 564 505 l 291 505 l 291 165 q 357 41 291 85 q 528 -3 422 -3 z "},"Ñ":{"ha":989,"x_min":14,"x_max":975,"o":"m 946 947 q 814 791 814 947 l 814 172 q 946 16 814 16 l 975 16 l 975 0 l 745 0 l 191 835 l 191 172 q 323 16 191 16 l 351 16 l 351 0 l 14 0 l 14 16 l 43 16 q 174 172 174 16 l 174 791 q 43 947 174 947 l 14 947 l 14 964 l 253 964 l 798 135 l 798 791 q 666 947 798 947 l 637 947 l 637 964 l 975 964 l 975 947 l 946 947 m 559 1040 q 522 1052 546 1040 q 477 1076 498 1063 q 434 1095 455 1088 q 401 1093 414 1103 q 389 1051 389 1082 l 372 1051 q 392 1134 372 1109 q 441 1158 412 1158 q 479 1148 455 1158 q 523 1126 503 1137 q 564 1109 544 1116 q 595 1113 583 1103 q 607 1152 607 1122 l 623 1152 q 605 1064 623 1087 q 559 1040 587 1041 z "},"Ò":{"ha":1042,"x_min":49,"x_max":991,"o":"m 331 943 q 375 963 331 943 q 521 983 419 983 q 711 943 623 983 q 860 837 799 904 q 957 677 922 769 q 991 482 991 585 q 932 230 991 345 q 764 48 873 116 q 521 -19 656 -19 q 277 48 385 -19 q 109 230 168 116 q 49 482 49 345 q 84 677 49 585 q 181 837 119 769 q 331 943 242 904 m 348 63 q 386 30 348 63 q 521 -3 424 -3 q 694 63 618 -3 q 810 238 770 128 q 851 482 851 349 q 810 726 851 616 q 694 901 770 836 q 521 966 618 966 q 348 901 424 966 q 230 726 271 836 q 189 482 189 616 q 230 238 189 349 q 348 63 271 128 m 509 999 q 495 1022 509 1012 q 460 1039 480 1031 q 419 1056 439 1046 q 384 1085 398 1066 q 369 1129 369 1103 q 389 1179 369 1158 q 439 1200 410 1200 q 500 1164 479 1200 q 526 999 526 1123 l 509 999 z "},"Ó":{"ha":1042,"x_min":49,"x_max":991,"o":"m 331 943 q 375 963 331 943 q 521 983 419 983 q 711 943 623 983 q 860 837 799 904 q 957 677 922 769 q 991 482 991 585 q 932 230 991 345 q 764 48 873 116 q 521 -19 656 -19 q 277 48 385 -19 q 109 230 168 116 q 49 482 49 345 q 84 677 49 585 q 181 837 119 769 q 331 943 242 904 m 348 63 q 386 30 348 63 q 521 -3 424 -3 q 694 63 618 -3 q 810 238 770 128 q 851 482 851 349 q 810 726 851 616 q 694 901 770 836 q 521 966 618 966 q 348 901 424 966 q 230 726 271 836 q 189 482 189 616 q 230 238 189 349 q 348 63 271 128 m 659 1129 q 644 1085 659 1103 q 609 1056 629 1066 q 567 1039 588 1046 q 532 1022 547 1031 q 517 999 517 1012 l 501 999 q 527 1164 501 1123 q 588 1200 547 1200 q 638 1179 617 1200 q 659 1129 659 1158 z "},"Ô":{"ha":1042,"x_min":49,"x_max":991,"o":"m 331 943 q 375 963 331 943 q 521 983 419 983 q 711 943 623 983 q 860 837 799 904 q 957 677 922 769 q 991 482 991 585 q 932 230 991 345 q 764 48 873 116 q 521 -19 656 -19 q 277 48 385 -19 q 109 230 168 116 q 49 482 49 345 q 84 677 49 585 q 181 837 119 769 q 331 943 242 904 m 348 63 q 386 30 348 63 q 521 -3 424 -3 q 694 63 618 -3 q 810 238 770 128 q 851 482 851 349 q 810 726 851 616 q 694 901 770 836 q 521 966 618 966 q 348 901 424 966 q 230 726 271 836 q 189 482 189 616 q 230 238 189 349 q 348 63 271 128 m 434 1010 q 429 1003 433 1008 q 423 996 425 998 l 399 996 l 492 1202 l 549 1202 l 641 996 l 616 996 l 523 1128 q 434 1010 458 1046 z "},"Õ":{"ha":1042,"x_min":49,"x_max":991,"o":"m 331 943 q 375 963 331 943 q 521 983 419 983 q 711 943 623 983 q 860 837 799 904 q 957 677 922 769 q 991 482 991 585 q 932 230 991 345 q 764 48 873 116 q 521 -19 656 -19 q 277 48 385 -19 q 109 230 168 116 q 49 482 49 345 q 84 677 49 585 q 181 837 119 769 q 331 943 242 904 m 348 63 q 386 30 348 63 q 521 -3 424 -3 q 694 63 618 -3 q 810 238 770 128 q 851 482 851 349 q 810 726 851 616 q 694 901 770 836 q 521 966 618 966 q 348 901 424 966 q 230 726 271 836 q 189 482 189 616 q 230 238 189 349 q 348 63 271 128 m 586 1040 q 549 1052 573 1040 q 504 1076 526 1063 q 461 1095 482 1088 q 428 1093 441 1103 q 416 1051 416 1082 l 399 1051 q 419 1134 399 1109 q 468 1158 439 1158 q 506 1148 482 1158 q 550 1126 529 1137 q 591 1109 571 1116 q 622 1113 610 1103 q 633 1152 633 1122 l 650 1152 q 632 1064 650 1087 q 586 1040 614 1041 z "},"Ö":{"ha":1042,"x_min":49,"x_max":991,"o":"m 331 943 q 375 963 331 943 q 521 983 419 983 q 711 943 623 983 q 860 837 799 904 q 957 677 922 769 q 991 482 991 585 q 957 287 991 379 q 860 128 922 195 q 711 21 799 60 q 521 -18 623 -18 q 331 21 419 -18 q 181 128 242 60 q 84 288 119 195 q 49 482 49 380 q 84 677 49 585 q 181 837 119 769 q 331 943 242 904 m 348 63 q 386 31 348 63 q 521 -2 424 -2 q 694 63 618 -2 q 810 239 770 129 q 851 482 851 349 q 810 726 851 616 q 694 901 770 836 q 521 966 618 966 q 348 901 424 966 q 230 726 271 836 q 189 482 189 616 q 230 239 189 349 q 348 63 271 129 m 437 1038 q 393 1056 411 1038 q 374 1100 374 1074 q 393 1143 374 1125 q 437 1162 411 1162 q 480 1144 463 1162 q 498 1100 498 1126 q 480 1056 498 1074 q 437 1038 462 1038 m 604 1038 q 560 1056 578 1038 q 542 1100 542 1074 q 560 1144 542 1126 q 604 1162 578 1162 q 648 1143 629 1162 q 666 1100 666 1125 q 648 1056 666 1074 q 604 1038 629 1038 z "},"×":{"ha":822,"x_min":66,"x_max":755,"o":"m 755 734 q 681 725 713 734 q 628 699 648 715 q 592 663 608 683 q 565 620 577 642 q 542 577 553 597 q 514 539 530 557 q 477 511 497 522 l 755 138 l 614 138 l 358 481 q 318 432 336 466 q 290 360 300 397 q 261 282 279 323 q 222 209 243 241 q 161 156 201 177 q 66 135 121 135 l 66 275 q 151 289 115 275 q 207 322 187 302 q 244 369 227 342 q 272 419 261 395 q 302 466 283 443 q 345 500 321 488 l 66 871 l 208 871 l 463 530 q 498 570 483 543 q 524 628 513 597 q 547 694 535 659 q 575 761 559 729 q 614 819 592 793 q 672 860 636 844 q 755 875 709 875 l 755 734 z "},"Ø":{"ha":1042,"x_min":49,"x_max":991,"o":"m 758 920 q 929 739 866 855 q 991 482 991 623 q 957 287 991 379 q 860 128 922 195 q 711 21 799 60 q 521 -18 623 -18 q 331 21 420 -18 q 212 1 298 1 l 212 17 q 283 45 257 17 q 112 226 174 110 q 49 482 49 342 q 84 677 49 585 q 181 837 119 769 q 331 943 242 904 q 521 983 419 983 q 710 944 623 983 q 828 964 745 964 l 828 948 q 758 920 784 948 m 315 96 q 331 132 322 110 l 639 833 q 678 913 665 895 q 521 966 607 966 q 348 901 424 966 q 230 726 271 836 q 189 482 189 616 q 222 263 189 364 q 315 96 255 162 m 521 -2 q 694 63 618 -2 q 810 239 770 129 q 851 482 851 349 q 818 702 851 601 q 726 870 785 804 q 716 850 722 864 q 709 833 711 837 l 401 132 q 362 52 375 70 q 521 -2 434 -2 z "},"Ù":{"ha":1087,"x_min":24,"x_max":1055,"o":"m 1055 948 q 978 935 998 948 q 957 879 958 922 l 957 86 q 976 30 958 43 q 1055 17 994 17 l 1055 1 l 913 1 q 844 29 873 1 q 816 98 816 58 l 816 948 q 691 931 747 948 q 597 875 635 913 q 560 781 560 836 q 582 695 560 741 q 633 606 603 650 q 694 514 664 562 q 746 402 725 466 q 768 272 768 339 q 692 60 768 138 q 494 -18 617 -18 q 419 -16 453 -18 q 345 -4 385 -13 q 275 18 306 4 q 215 56 244 32 q 165 112 185 79 q 134 191 146 144 q 122 295 122 237 l 122 879 q 119 906 122 896 q 106 927 116 917 q 77 943 97 938 q 24 948 56 948 l 24 964 l 361 964 l 361 948 q 283 930 303 948 q 263 879 263 912 l 263 295 l 262 295 q 271 180 262 230 q 297 99 280 131 q 335 46 315 67 q 383 16 355 26 q 436 2 412 5 q 494 -2 461 -2 q 682 72 612 -2 q 751 272 751 145 q 724 405 751 342 q 659 514 697 468 q 582 602 621 560 q 517 689 544 644 q 490 778 490 734 q 510 846 490 814 q 570 906 531 879 q 673 948 610 932 q 816 964 737 964 l 1055 964 l 1055 948 m 498 1000 q 483 1022 498 1013 q 448 1040 469 1032 q 407 1057 427 1047 q 371 1085 386 1067 q 357 1130 357 1104 q 377 1179 357 1159 q 427 1200 398 1200 q 488 1165 467 1200 q 514 1000 514 1122 l 498 1000 z "},"Ú":{"ha":1087,"x_min":24,"x_max":1055,"o":"m 1055 948 q 978 935 998 948 q 957 879 958 922 l 957 86 q 976 30 958 43 q 1055 17 994 17 l 1055 1 l 913 1 q 844 29 873 1 q 816 98 816 58 l 816 948 q 691 931 747 948 q 597 875 635 913 q 560 781 560 836 q 582 695 560 741 q 633 606 603 650 q 694 514 664 562 q 746 402 725 466 q 768 272 768 339 q 692 60 768 138 q 494 -18 617 -18 q 419 -16 453 -18 q 345 -4 385 -13 q 275 18 306 4 q 215 56 244 32 q 165 112 185 79 q 134 191 146 144 q 122 295 122 237 l 122 879 q 119 906 122 896 q 106 927 116 917 q 77 943 97 938 q 24 948 56 948 l 24 964 l 361 964 l 361 948 q 283 930 303 948 q 263 879 263 912 l 263 295 l 262 295 q 271 180 262 230 q 297 99 280 131 q 335 46 315 67 q 383 16 355 26 q 436 2 412 5 q 494 -2 461 -2 q 682 72 612 -2 q 751 272 751 145 q 724 405 751 342 q 659 514 697 468 q 582 602 621 560 q 517 689 544 644 q 490 778 490 734 q 510 846 490 814 q 570 906 531 879 q 673 948 610 932 q 816 964 737 964 l 1055 964 l 1055 948 m 643 1130 q 628 1085 643 1104 q 593 1057 614 1067 q 552 1040 572 1047 q 516 1022 531 1032 q 502 1000 502 1013 l 486 1000 q 512 1165 486 1122 q 572 1200 532 1200 q 622 1179 602 1200 q 643 1130 643 1159 z "},"Û":{"ha":1087,"x_min":24,"x_max":1055,"o":"m 1055 948 q 978 935 998 948 q 957 879 958 922 l 957 86 q 976 30 958 43 q 1055 17 994 17 l 1055 1 l 913 1 q 844 29 873 1 q 816 98 816 58 l 816 948 q 691 931 747 948 q 597 875 635 913 q 560 781 560 836 q 582 695 560 741 q 633 606 603 650 q 694 514 664 562 q 746 402 725 466 q 768 272 768 339 q 692 60 768 138 q 494 -18 617 -18 q 419 -16 453 -18 q 345 -4 385 -13 q 275 18 306 4 q 215 56 244 32 q 165 112 185 79 q 134 191 146 144 q 122 295 122 237 l 122 879 q 119 906 122 896 q 106 927 116 917 q 77 943 97 938 q 24 948 56 948 l 24 964 l 361 964 l 361 948 q 283 930 303 948 q 263 879 263 912 l 263 295 l 262 295 q 271 180 262 230 q 297 99 280 131 q 335 46 315 67 q 383 16 355 26 q 436 2 412 5 q 494 -2 461 -2 q 682 72 612 -2 q 751 272 751 145 q 724 405 751 342 q 659 514 697 468 q 582 602 621 560 q 517 689 544 644 q 490 778 490 734 q 510 846 490 814 q 570 906 531 879 q 673 948 610 932 q 816 964 737 964 l 1055 964 l 1055 948 m 455 1010 q 450 1004 454 1008 q 444 996 446 999 l 420 996 l 513 1203 l 570 1203 l 663 996 l 637 996 l 544 1128 q 455 1010 479 1046 z "},"Ü":{"ha":1087,"x_min":24,"x_max":1055,"o":"m 1055 948 q 978 935 998 948 q 957 879 958 922 l 957 86 q 976 30 958 43 q 1055 17 994 17 l 1055 1 l 913 1 q 844 29 873 1 q 816 98 816 58 l 816 948 q 691 931 747 948 q 597 875 635 913 q 560 781 560 836 q 582 695 560 741 q 633 606 603 650 q 694 514 664 562 q 746 402 725 466 q 768 272 768 339 q 692 60 768 138 q 494 -18 617 -18 q 419 -16 453 -18 q 345 -4 385 -13 q 275 18 306 4 q 215 56 244 32 q 165 112 185 79 q 134 191 146 144 q 122 295 122 237 l 122 879 q 119 906 122 896 q 106 927 116 917 q 77 943 97 938 q 24 948 56 948 l 24 964 l 361 964 l 361 948 q 283 930 303 948 q 263 879 263 912 l 263 295 l 262 295 q 271 180 262 230 q 297 99 280 131 q 335 46 315 67 q 383 16 355 26 q 436 2 412 5 q 494 -2 461 -2 q 682 72 612 -2 q 751 272 751 145 q 724 405 751 342 q 659 514 697 468 q 582 602 621 560 q 517 689 544 644 q 490 778 490 734 q 510 846 490 814 q 570 906 531 879 q 673 948 610 932 q 816 964 737 964 l 1055 964 l 1055 948 m 638 1040 q 602 1052 625 1040 q 556 1076 578 1063 q 514 1095 534 1088 q 480 1093 493 1103 q 468 1051 468 1082 l 452 1051 q 471 1134 452 1109 q 520 1159 491 1159 q 558 1148 534 1159 q 602 1127 581 1138 q 643 1110 623 1116 q 674 1114 663 1104 q 686 1152 686 1123 l 702 1152 q 684 1064 702 1088 q 638 1040 667 1041 z "},"Ý":{"ha":998,"x_min":-3,"x_max":1000,"o":"m 878 964 l 1000 964 l 1000 947 l 972 947 q 874 918 913 947 q 789 804 836 888 l 547 370 l 547 85 q 567 36 547 56 q 616 16 587 16 l 646 16 l 646 0 l 308 0 l 308 16 l 337 16 q 386 36 366 16 q 406 85 406 56 l 406 370 l 123 878 q 26 947 85 947 l -3 947 l -3 964 l 329 964 l 329 947 l 280 947 q 264 878 225 947 l 539 385 l 772 804 q 801 872 794 843 q 801 917 808 901 q 779 940 793 932 q 743 947 764 947 l 663 947 l 663 964 l 878 964 m 656 1130 q 641 1085 656 1104 q 606 1057 627 1067 q 565 1040 586 1047 q 530 1022 545 1032 q 515 1000 515 1013 l 499 1000 q 525 1165 499 1124 q 585 1200 545 1200 q 635 1179 614 1200 q 656 1130 656 1159 z "},"Þ":{"ha":882,"x_min":32,"x_max":838,"o":"m 474 867 q 611 842 547 867 q 727 770 676 817 q 808 649 778 723 q 838 482 838 574 q 810 313 838 387 q 732 192 782 238 q 617 121 682 145 q 474 97 552 97 q 347 124 399 97 q 271 201 294 151 l 271 86 q 291 37 271 57 q 340 17 311 17 l 370 17 l 370 1 l 32 1 l 32 17 l 61 17 q 110 37 90 17 q 130 86 130 57 l 130 879 q 110 928 130 908 q 61 948 90 948 l 32 948 l 32 964 l 370 964 l 370 948 l 340 948 q 291 928 311 948 q 271 879 271 908 l 271 785 q 474 867 344 867 m 474 113 q 562 132 523 113 q 625 184 600 151 q 667 264 650 217 q 690 366 683 312 q 697 482 697 419 q 673 665 697 583 q 598 799 650 747 q 474 851 546 851 q 323 774 376 851 q 271 560 271 696 l 271 281 q 328 157 271 201 q 474 113 385 113 z "},"ß":{"ha":972,"x_min":24,"x_max":934,"o":"m 507 515 q 631 508 573 515 q 746 483 689 501 q 843 434 803 464 q 909 357 884 405 q 934 249 934 310 q 907 143 934 190 q 839 66 881 96 q 740 17 797 37 q 625 -11 682 -3 q 507 -18 568 -18 l 507 -2 q 582 5 545 -2 q 659 31 620 12 q 727 77 698 50 q 775 149 756 104 q 793 249 793 193 q 713 428 793 357 q 507 499 632 499 q 325 511 379 499 q 270 562 270 523 q 327 612 270 600 q 507 624 383 624 q 587 674 554 624 q 621 789 621 725 q 570 921 621 875 q 429 967 520 967 q 319 940 374 967 q 263 879 263 913 l 263 1 l 24 1 l 24 17 l 53 17 q 102 37 82 17 q 122 86 122 57 l 122 879 q 102 928 122 908 q 53 948 82 948 l 24 948 l 24 964 l 122 964 q 244 974 143 964 q 429 983 345 983 q 674 935 587 983 q 762 789 762 886 q 689 658 762 709 q 507 608 616 608 q 411 562 411 608 q 431 526 411 537 q 507 515 451 515 z "},"à":{"ha":869,"x_min":40,"x_max":844,"o":"m 463 781 q 448 803 463 793 q 413 821 433 813 q 371 838 392 828 q 336 866 351 848 q 321 911 321 885 q 342 960 321 940 q 392 981 363 981 q 453 946 433 981 q 479 781 479 905 l 463 781 m 745 178 q 753 123 745 142 q 783 98 761 104 q 844 109 805 92 l 844 93 l 621 0 l 604 0 l 604 93 q 517 11 578 40 q 376 -19 456 -19 q 126 49 213 -19 q 40 227 40 117 q 64 339 40 291 q 132 416 88 387 q 232 458 176 444 q 357 472 288 472 q 604 313 543 472 l 604 505 q 450 735 604 735 q 399 727 424 735 q 350 701 374 719 q 311 651 326 684 q 296 574 296 618 q 279 520 296 542 q 229 498 262 498 q 176 522 196 498 q 155 577 155 545 q 200 666 155 625 q 313 729 245 707 q 450 751 380 751 q 670 685 595 751 q 745 505 745 619 l 745 178 m 604 165 l 604 227 l 604 219 q 537 389 604 321 q 376 456 469 456 q 237 396 293 456 q 181 227 181 336 q 233 55 181 113 q 376 -3 285 -3 q 537 42 469 -3 q 604 165 604 87 z "},"á":{"ha":869,"x_min":40,"x_max":844,"o":"m 599 911 q 584 866 599 885 q 549 838 570 848 q 508 821 528 828 q 472 803 487 813 q 458 781 458 793 l 441 781 q 468 946 441 903 q 528 981 488 981 q 578 960 557 981 q 599 911 599 940 m 745 178 q 753 123 745 142 q 783 98 761 104 q 844 109 805 92 l 844 93 l 621 0 l 604 0 l 604 93 q 517 11 578 40 q 376 -19 456 -19 q 126 49 213 -19 q 40 227 40 117 q 64 339 40 291 q 132 416 88 387 q 232 458 176 444 q 357 472 288 472 q 604 313 543 472 l 604 505 q 450 735 604 735 q 399 727 424 735 q 350 701 374 719 q 311 651 326 684 q 296 574 296 618 q 279 520 296 542 q 229 498 262 498 q 176 522 196 498 q 155 577 155 545 q 200 666 155 625 q 313 729 245 707 q 450 751 380 751 q 670 685 595 751 q 745 505 745 619 l 745 178 m 604 165 l 604 227 l 604 219 q 537 389 604 321 q 376 456 469 456 q 237 396 293 456 q 181 227 181 336 q 233 55 181 113 q 376 -3 285 -3 q 537 42 469 -3 q 604 165 604 87 z "},"â":{"ha":869,"x_min":40,"x_max":844,"o":"m 375 791 l 365 777 l 340 777 l 434 984 l 491 984 l 583 777 l 557 777 l 464 909 q 375 791 399 827 m 745 178 q 753 123 745 142 q 783 98 761 104 q 844 109 805 92 l 844 93 l 621 0 l 604 0 l 604 93 q 517 11 578 40 q 376 -19 456 -19 q 126 49 213 -19 q 40 227 40 117 q 64 339 40 291 q 132 416 88 387 q 232 458 176 444 q 357 472 288 472 q 604 313 543 472 l 604 505 q 450 735 604 735 q 399 727 424 735 q 350 701 374 719 q 311 651 326 684 q 296 574 296 618 q 279 520 296 542 q 229 498 262 498 q 176 522 197 498 q 156 577 156 545 q 201 666 156 625 q 313 729 245 707 q 450 751 380 751 q 670 685 595 751 q 745 505 745 619 l 745 178 m 604 165 l 604 227 l 604 219 q 537 389 604 321 q 376 456 469 456 q 237 396 293 456 q 181 227 181 336 q 233 55 181 113 q 376 -3 285 -3 q 537 42 469 -3 q 604 165 604 87 z "},"ã":{"ha":869,"x_min":40,"x_max":844,"o":"m 502 821 q 465 832 489 821 q 419 857 441 844 q 377 876 397 869 q 343 873 356 884 q 331 832 331 863 l 315 832 q 335 915 315 890 q 384 940 355 940 q 421 929 398 940 q 466 908 445 919 q 507 891 487 897 q 538 895 526 885 q 549 933 549 904 l 566 933 q 548 845 566 869 q 502 821 530 822 m 745 178 q 753 123 745 142 q 783 98 761 104 q 844 109 805 92 l 844 93 l 621 0 l 604 0 l 604 93 q 517 11 578 40 q 376 -19 456 -19 q 126 49 213 -19 q 40 227 40 117 q 64 339 40 291 q 132 416 88 387 q 232 458 176 444 q 357 472 288 472 q 604 313 543 472 l 604 505 q 450 735 604 735 q 399 727 424 735 q 350 701 374 719 q 311 651 326 684 q 296 574 296 618 q 279 520 296 542 q 229 498 262 498 q 176 522 196 498 q 155 577 155 545 q 200 666 155 625 q 313 729 245 707 q 450 751 380 751 q 670 685 595 751 q 745 505 745 619 l 745 178 m 604 165 l 604 227 l 604 219 q 537 389 604 321 q 376 456 469 456 q 237 396 293 456 q 181 227 181 336 q 233 55 181 113 q 376 -3 285 -3 q 537 42 469 -3 q 604 165 604 87 z "},"ä":{"ha":869,"x_min":40,"x_max":844,"o":"m 408 838 q 398 828 408 838 q 364 819 389 819 q 321 838 339 819 q 302 881 302 856 q 321 924 302 906 q 364 943 339 943 q 408 924 389 943 q 426 881 426 906 q 408 838 426 856 m 575 838 q 566 828 575 838 q 532 819 557 819 q 488 838 506 819 q 470 881 470 856 q 488 924 470 906 q 532 943 506 943 q 575 924 557 943 q 593 881 593 906 q 575 838 593 856 m 745 178 q 753 123 745 142 q 783 98 761 104 q 844 109 805 92 l 844 93 l 621 0 l 604 0 l 604 93 q 517 11 578 40 q 376 -19 456 -19 q 126 49 213 -19 q 40 227 40 117 q 64 339 40 291 q 132 416 88 387 q 232 458 176 444 q 357 472 288 472 q 604 313 543 472 l 604 505 q 450 735 604 735 q 399 727 424 735 q 350 701 374 719 q 311 651 326 684 q 296 574 296 618 q 279 520 296 542 q 229 498 262 498 q 176 522 197 498 q 156 577 156 545 q 201 666 156 625 q 313 729 245 707 q 450 751 380 751 q 670 685 595 751 q 745 505 745 619 l 745 178 m 604 165 l 604 227 l 604 219 q 537 389 604 321 q 376 456 469 456 q 237 396 293 456 q 181 227 181 336 q 233 55 181 113 q 376 -3 285 -3 q 537 42 469 -3 q 604 165 604 87 z "},"å":{"ha":869,"x_min":40,"x_max":844,"o":"m 492 825 q 481 814 492 825 q 437 802 469 802 q 381 825 404 802 q 358 881 358 848 q 381 936 358 913 q 437 959 404 959 q 492 936 469 959 q 515 881 515 913 q 492 825 515 848 m 468 912 q 461 918 468 912 q 437 924 455 924 q 406 912 418 924 q 393 881 393 899 q 406 850 393 863 q 437 837 418 837 q 468 850 455 837 q 481 881 481 863 q 468 912 481 899 m 745 178 q 753 123 745 142 q 783 98 761 104 q 844 109 805 92 l 844 93 l 621 0 l 604 0 l 604 93 q 517 11 578 40 q 376 -19 456 -19 q 126 49 213 -19 q 40 227 40 117 q 64 339 40 291 q 132 416 88 387 q 232 458 176 444 q 357 472 288 472 q 604 313 543 472 l 604 505 q 450 735 604 735 q 399 727 424 735 q 350 701 374 719 q 311 651 326 684 q 296 574 296 618 q 279 520 296 542 q 229 498 262 498 q 176 522 197 498 q 156 577 156 545 q 201 666 156 625 q 313 729 245 707 q 450 751 380 751 q 670 685 595 751 q 745 505 745 619 l 745 178 m 604 165 l 604 227 l 604 219 q 537 389 604 321 q 376 456 469 456 q 237 396 293 456 q 181 227 181 336 q 233 55 181 113 q 376 -3 285 -3 q 537 42 469 -3 q 604 165 604 87 z "},"æ":{"ha":1393,"x_min":47,"x_max":1353,"o":"m 1337 229 l 1353 224 q 1240 47 1320 113 q 1027 -19 1161 -19 q 785 56 886 -19 q 412 -19 574 -19 q 142 50 237 -19 q 47 227 47 118 q 67 320 47 278 q 122 390 87 361 q 202 436 156 418 q 299 464 248 455 q 405 472 350 472 q 633 400 553 472 l 633 495 q 615 605 633 557 q 567 680 597 652 q 497 722 536 708 q 414 735 459 735 q 324 722 360 735 q 269 686 288 709 q 244 634 251 662 q 241 570 238 606 q 241 568 241 569 q 241 566 241 566 q 221 516 241 536 q 171 495 200 495 q 123 514 143 495 q 100 560 102 532 l 100 561 l 100 563 q 180 697 96 642 q 414 751 264 751 q 601 723 519 751 q 728 637 683 695 q 988 751 825 751 q 1217 693 1131 751 q 1303 523 1303 635 q 1266 389 1303 455 q 1165 268 1230 323 q 1021 165 1100 212 q 848 80 941 118 q 1027 -3 911 -3 q 1229 60 1153 -3 q 1337 229 1305 123 m 412 -3 q 753 81 564 -3 q 659 227 688 143 q 658 229 658 227 q 657 231 658 230 q 656 233 656 231 q 656 235 656 234 q 618 327 636 291 q 571 395 600 363 q 502 441 543 427 q 405 456 461 456 q 243 398 299 456 q 188 227 188 340 q 252 57 188 116 q 412 -3 317 -3 m 776 366 q 825 117 776 211 q 1068 303 974 197 q 1163 523 1163 410 q 1116 681 1163 627 q 988 735 1069 735 q 871 685 920 735 q 799 552 822 634 q 776 366 776 471 z "},"ç":{"ha":769,"x_min":50,"x_max":728,"o":"m 377 -14 q 370 -24 372 -18 q 378 -56 366 -39 q 432 -86 391 -73 q 513 -142 492 -106 q 519 -220 534 -178 q 492 -266 510 -248 q 440 -291 474 -283 q 357 -281 406 -298 q 305 -250 326 -270 q 279 -209 285 -230 q 275 -168 273 -187 q 286 -136 277 -148 l 286 -135 l 286 -134 l 288 -134 l 288 -133 q 312 -127 297 -122 q 325 -138 321 -130 q 326 -156 330 -146 q 323 -163 326 -159 l 323 -163 l 321 -165 q 308 -203 309 -180 q 320 -246 307 -225 q 359 -276 334 -267 q 475 -206 442 -304 q 478 -138 490 -171 q 430 -92 467 -104 q 365 -56 382 -76 q 352 -9 347 -37 q 183 64 252 9 q 82 196 114 119 q 50 366 50 272 q 96 560 50 473 q 228 700 142 648 q 420 751 313 751 q 534 732 483 751 q 617 681 585 712 q 669 612 649 650 q 696 535 690 573 q 696 465 702 498 q 672 421 691 439 q 627 404 653 404 q 571 431 594 404 q 560 497 547 458 q 573 562 571 529 q 568 626 576 595 q 543 682 560 657 q 494 721 526 706 q 421 735 463 735 q 298 685 351 735 q 218 552 245 635 q 191 366 191 469 q 456 -3 191 -3 q 544 10 503 -3 q 616 46 585 23 q 672 95 648 68 q 715 153 696 121 l 728 144 q 620 27 688 73 q 456 -19 551 -19 q 377 -14 417 -19 z "},"è":{"ha":753,"x_min":52,"x_max":715,"o":"m 433 781 q 419 803 433 793 q 384 821 404 813 q 342 838 363 828 q 307 866 321 848 q 292 911 292 885 q 313 960 292 940 q 363 981 334 981 q 424 946 404 981 q 450 781 450 905 l 433 781 m 701 153 l 715 144 q 607 27 675 73 q 444 -19 538 -19 q 272 11 348 -19 q 149 94 196 41 q 76 216 101 146 q 52 366 52 286 q 79 528 52 454 q 155 650 107 601 q 267 725 203 699 q 404 751 331 751 q 604 697 533 751 q 675 568 675 644 q 603 437 675 484 q 385 390 530 390 q 258 360 304 390 q 200 266 212 331 q 219 185 207 223 q 252 113 231 148 q 298 53 272 78 q 362 13 324 28 q 444 -3 399 -3 q 596 41 532 -3 q 701 153 661 85 m 192 366 q 195 300 192 338 q 267 381 216 357 q 385 406 318 406 q 510 453 471 406 q 550 575 550 499 q 508 689 550 644 q 404 735 467 735 q 287 685 336 735 q 215 552 238 634 q 192 366 192 471 z "},"é":{"ha":798,"x_min":52,"x_max":753,"o":"m 525 911 q 510 866 525 885 q 475 838 496 848 q 434 821 454 828 q 398 803 413 813 q 384 781 384 793 l 368 781 q 393 946 368 905 q 454 981 414 981 q 504 960 484 981 q 525 911 525 940 m 738 231 l 753 226 q 726 147 740 180 q 688 81 712 115 q 633 27 664 47 q 554 -6 602 7 q 444 -19 506 -19 q 272 11 348 -19 q 149 94 196 41 q 76 216 101 146 q 52 366 52 286 q 93 560 52 473 q 216 699 134 647 q 404 751 297 751 q 567 726 498 751 q 678 642 636 701 q 720 495 720 583 q 696 407 720 444 q 626 350 672 370 q 521 320 580 330 q 385 311 463 311 q 287 284 328 311 q 234 213 245 257 q 248 115 222 170 q 444 -3 315 -3 q 546 10 501 -3 q 621 42 591 22 q 674 93 651 61 q 711 156 697 125 q 738 231 724 187 m 192 366 q 200 258 192 311 q 284 309 232 291 q 385 328 336 328 q 533 365 488 328 q 579 495 579 401 q 533 677 579 619 q 404 735 487 735 q 287 685 336 735 q 215 552 238 634 q 192 366 192 471 z "},"ê":{"ha":798,"x_min":52,"x_max":753,"o":"m 738 231 l 753 226 q 726 147 740 180 q 688 81 712 115 q 633 27 664 47 q 554 -6 602 7 q 444 -19 506 -19 q 272 11 348 -19 q 149 94 196 41 q 76 216 101 146 q 52 366 52 286 q 93 560 52 473 q 216 699 134 647 q 404 751 297 751 q 567 726 498 751 q 678 642 636 701 q 720 495 720 583 q 696 407 720 444 q 626 350 672 370 q 521 320 580 330 q 385 311 463 311 q 287 284 328 311 q 234 213 245 257 q 248 115 222 170 q 444 -3 315 -3 q 546 10 501 -3 q 621 42 591 22 q 674 93 651 61 q 711 156 697 125 q 738 231 724 187 m 192 366 q 200 258 192 311 q 284 309 232 291 q 385 328 336 328 q 533 365 488 328 q 579 495 579 401 q 533 677 579 619 q 404 735 487 735 q 287 685 336 735 q 215 552 238 634 q 192 366 192 471 m 316 791 l 306 777 l 281 777 l 375 984 l 432 984 l 524 777 l 498 777 l 405 909 q 316 791 340 827 z "},"ë":{"ha":798,"x_min":52,"x_max":753,"o":"m 329 820 q 282 831 303 816 q 258 871 262 846 q 269 917 254 897 q 309 942 284 938 q 355 931 335 946 q 380 891 376 916 q 369 845 384 865 q 329 820 354 824 m 496 820 q 450 831 470 816 q 425 871 429 846 q 436 917 421 897 q 476 942 451 938 q 523 931 502 946 q 547 891 543 916 q 536 845 551 865 q 496 820 521 824 m 738 231 l 753 226 q 726 147 740 180 q 688 81 712 115 q 633 27 664 47 q 554 -6 602 7 q 444 -19 506 -19 q 272 11 348 -19 q 149 94 196 41 q 76 216 101 146 q 52 366 52 286 q 93 560 52 473 q 216 699 134 647 q 404 751 297 751 q 567 726 498 751 q 678 642 636 701 q 720 495 720 583 q 696 407 720 444 q 626 350 672 370 q 521 320 580 330 q 385 311 463 311 q 287 284 328 311 q 234 213 245 257 q 248 115 222 170 q 444 -3 315 -3 q 546 10 501 -3 q 621 42 591 22 q 674 93 651 61 q 711 156 697 125 q 738 231 724 187 m 192 366 q 200 258 192 311 q 284 309 232 291 q 385 328 336 328 q 533 365 488 328 q 579 495 579 401 q 533 677 579 619 q 404 735 487 735 q 287 685 336 735 q 215 552 238 634 q 192 366 192 471 z "},"ì":{"ha":395,"x_min":33,"x_max":371,"o":"m 342 16 l 371 16 l 371 0 l 273 0 l 273 0 l 33 0 l 33 16 l 62 16 q 111 36 91 16 q 132 85 131 56 l 132 557 q 111 626 131 606 q 62 635 91 646 l 33 624 l 33 640 l 256 733 l 273 733 l 273 85 q 293 36 273 56 q 342 16 313 16 m 207 768 q 192 791 207 781 q 157 808 178 801 q 116 825 137 816 q 81 853 96 835 q 66 898 66 872 q 87 948 66 927 q 136 968 107 968 q 197 934 177 968 q 223 768 223 892 l 207 768 z "},"í":{"ha":395,"x_min":33,"x_max":371,"o":"m 342 16 l 371 16 l 371 0 l 273 0 l 273 0 l 33 0 l 33 16 l 62 16 q 111 36 91 16 q 132 85 131 56 l 132 557 q 111 626 131 606 q 62 635 91 646 l 33 624 l 33 640 l 256 733 l 273 733 l 273 85 q 293 36 273 56 q 342 16 313 16 m 344 898 q 329 853 344 872 q 294 825 315 835 q 253 808 273 816 q 217 791 232 801 q 203 768 203 781 l 186 768 q 212 934 186 892 q 273 968 233 968 q 323 948 302 968 q 344 898 344 927 z "},"î":{"ha":395,"x_min":33,"x_max":371,"o":"m 342 16 l 371 16 l 371 0 l 273 0 l 273 0 l 33 0 l 33 16 l 62 16 q 111 36 91 16 q 132 85 131 56 l 132 557 q 111 626 131 606 q 62 635 91 646 l 33 624 l 33 640 l 256 733 l 273 733 l 273 85 q 293 36 273 56 q 342 16 313 16 m 76 791 l 66 777 l 41 777 l 135 984 l 192 984 l 283 777 l 258 777 l 165 909 q 76 791 100 827 z "},"ï":{"ha":394,"x_min":22,"x_max":370,"o":"m 128 838 q 119 828 128 838 q 84 819 110 819 q 40 838 58 819 q 22 881 22 856 q 40 924 22 906 q 84 943 58 943 q 128 924 110 943 q 146 881 146 906 q 128 838 146 856 m 261 820 q 215 831 235 816 q 191 871 195 846 q 201 917 186 897 q 241 942 216 938 q 288 931 267 946 q 313 891 309 916 q 301 845 317 865 q 261 820 286 824 m 341 16 l 370 16 l 370 0 l 272 0 l 272 0 l 33 0 l 33 16 l 62 16 q 110 36 90 16 q 131 85 130 56 l 131 557 q 110 626 130 606 q 62 635 90 646 l 33 624 l 33 640 l 256 733 l 272 733 l 272 85 q 292 36 272 56 q 341 16 312 16 z "},"ð":{"ha":806,"x_min":52,"x_max":743,"o":"m 512 953 q 743 310 743 844 q 651 62 743 142 q 397 -19 559 -19 q 143 62 235 -19 q 52 310 52 142 q 143 558 52 477 q 397 638 235 638 q 593 597 513 638 q 490 923 573 842 l 327 699 l 281 699 l 461 946 q 384 966 427 966 q 276 923 310 966 q 242 812 242 879 q 221 762 242 783 q 172 742 201 742 q 122 762 142 742 q 101 812 101 783 q 104 832 101 822 l 104 832 l 106 838 q 371 983 159 983 q 476 967 427 983 l 555 1076 l 602 1076 l 512 953 m 249 78 q 277 38 249 78 q 397 -3 305 -3 q 545 79 488 -3 q 602 310 602 160 q 545 541 602 460 q 397 622 488 622 q 249 541 305 622 q 192 310 192 460 q 249 78 192 159 z "},"ñ":{"ha":871,"x_min":33,"x_max":848,"o":"m 507 821 q 470 832 494 821 q 425 857 446 844 q 382 876 403 869 q 349 873 361 884 q 336 832 336 863 l 320 832 q 340 915 320 890 q 389 940 360 940 q 427 929 404 940 q 471 908 450 919 q 512 891 492 897 q 543 895 532 885 q 555 933 555 904 l 571 933 q 553 845 571 869 q 507 821 536 822 m 819 16 l 848 16 l 848 0 l 511 0 l 511 16 l 540 16 q 589 36 569 16 q 609 85 609 56 l 609 540 q 571 692 609 648 q 459 735 533 735 q 350 711 404 735 q 273 656 295 686 l 273 85 q 293 36 273 56 q 342 16 313 16 l 371 16 l 371 0 l 273 0 l 273 0 l 33 0 l 33 16 l 62 16 q 111 36 91 16 q 132 85 131 56 l 132 557 q 111 626 131 606 q 62 635 91 646 l 33 624 l 33 640 l 256 733 l 273 733 l 273 675 q 361 730 305 709 q 482 751 417 751 q 750 540 750 751 l 750 85 q 770 36 750 56 q 819 16 790 16 z "},"ò":{"ha":842,"x_min":50,"x_max":791,"o":"m 228 700 q 271 725 228 700 q 421 751 313 751 q 614 700 529 751 q 745 560 699 648 q 791 366 791 473 q 745 172 791 260 q 614 33 699 85 q 421 -19 529 -19 q 228 33 313 -19 q 96 173 142 85 q 50 366 50 260 q 96 560 50 472 q 228 700 142 648 m 299 47 q 326 22 299 47 q 421 -3 352 -3 q 543 47 490 -3 q 623 180 595 97 q 650 366 650 264 q 623 552 650 469 q 543 685 595 635 q 421 735 490 735 q 299 685 352 735 q 218 552 246 635 q 191 366 191 469 q 218 180 191 264 q 299 47 246 97 m 410 768 q 396 791 410 781 q 360 808 381 801 q 319 825 340 816 q 284 853 298 835 q 269 898 269 872 q 290 948 269 927 q 340 968 311 968 q 400 934 380 968 q 427 768 427 891 l 410 768 z "},"ó":{"ha":842,"x_min":50,"x_max":791,"o":"m 228 700 q 271 725 228 700 q 421 751 313 751 q 614 700 529 751 q 745 560 699 648 q 791 366 791 473 q 745 172 791 260 q 614 33 699 85 q 421 -19 529 -19 q 228 33 313 -19 q 96 173 142 85 q 50 366 50 260 q 96 560 50 472 q 228 700 142 648 m 299 47 q 326 22 299 47 q 421 -3 352 -3 q 543 47 490 -3 q 623 180 595 97 q 650 366 650 264 q 623 552 650 469 q 543 685 595 635 q 421 735 490 735 q 299 685 352 735 q 218 552 246 635 q 191 366 191 469 q 218 180 191 264 q 299 47 246 97 m 568 898 q 553 853 568 872 q 518 825 538 835 q 476 808 497 816 q 441 791 456 801 q 427 768 427 781 l 410 768 q 436 934 410 892 q 497 968 456 968 q 547 948 526 968 q 568 898 568 927 z "},"ô":{"ha":842,"x_min":50,"x_max":791,"o":"m 228 700 q 271 725 228 700 q 421 751 313 751 q 614 700 529 751 q 745 560 699 648 q 791 366 791 473 q 745 172 791 260 q 614 33 699 85 q 421 -19 529 -19 q 228 33 313 -19 q 96 173 142 85 q 50 366 50 260 q 96 560 50 472 q 228 700 142 648 m 299 47 q 326 22 299 47 q 421 -3 352 -3 q 543 47 490 -3 q 623 180 595 97 q 650 366 650 264 q 623 552 650 469 q 543 685 595 635 q 421 735 490 735 q 299 685 352 735 q 218 552 246 635 q 191 366 191 469 q 218 180 191 264 q 299 47 246 97 m 340 791 q 334 785 338 789 q 329 777 330 780 l 304 777 l 398 984 l 455 984 l 547 777 l 522 777 l 428 909 q 340 791 363 827 z "},"õ":{"ha":842,"x_min":50,"x_max":791,"o":"m 492 821 q 455 832 479 821 q 409 857 431 844 q 367 876 387 869 q 333 873 346 884 q 321 832 321 863 l 304 832 q 325 915 304 890 q 374 940 345 940 q 411 929 388 940 q 456 908 435 919 q 496 891 477 897 q 528 895 516 885 q 539 933 539 904 l 555 933 q 538 845 555 869 q 492 821 520 822 m 228 700 q 271 725 228 700 q 421 751 313 751 q 614 700 529 751 q 745 560 699 648 q 791 366 791 473 q 745 172 791 260 q 614 33 699 85 q 421 -19 529 -19 q 228 33 313 -19 q 96 173 142 85 q 50 366 50 260 q 96 560 50 472 q 228 700 142 648 m 299 47 q 326 22 299 47 q 421 -3 352 -3 q 543 47 490 -3 q 623 180 595 97 q 650 366 650 264 q 623 552 650 469 q 543 685 595 635 q 421 735 490 735 q 299 685 352 735 q 218 552 246 635 q 191 366 191 469 q 218 180 191 264 q 299 47 246 97 z "},"ö":{"ha":842,"x_min":50,"x_max":791,"o":"m 337 819 q 293 838 311 819 q 275 881 275 856 q 293 924 275 906 q 337 943 311 943 q 380 924 362 943 q 399 881 399 906 q 380 838 399 856 q 337 819 362 819 m 554 845 q 547 834 554 845 q 514 820 539 824 q 468 831 489 816 q 444 871 448 846 q 454 918 439 897 q 494 942 469 938 q 541 931 520 946 q 566 891 562 916 q 554 845 570 865 m 228 700 q 271 725 228 700 q 421 751 313 751 q 614 700 529 751 q 745 560 699 648 q 791 366 791 473 q 745 172 791 260 q 614 33 699 85 q 421 -19 529 -19 q 228 33 313 -19 q 96 173 142 85 q 50 366 50 260 q 96 560 50 472 q 228 700 142 648 m 299 47 q 326 22 299 47 q 421 -3 352 -3 q 543 47 490 -3 q 623 180 595 97 q 650 366 650 264 q 623 552 650 469 q 543 685 595 635 q 421 735 490 735 q 299 685 352 735 q 218 552 246 635 q 191 366 191 469 q 218 180 191 264 q 299 47 246 97 z "},"÷":{"ha":597,"x_min":33,"x_max":563,"o":"m 563 352 l 33 352 l 33 381 l 563 381 l 563 352 m 361 550 q 352 537 361 550 q 311 518 342 524 q 253 532 279 513 q 222 582 227 551 q 236 640 216 614 q 286 671 255 667 q 343 657 317 676 q 375 607 370 639 q 361 550 380 576 m 373 117 q 335 71 363 86 q 276 64 307 56 q 230 102 245 73 q 224 161 215 131 q 262 207 233 192 q 321 213 290 222 q 367 175 351 203 q 373 117 382 147 z "},"ø":{"ha":842,"x_min":50,"x_max":791,"o":"m 576 720 q 733 580 675 675 q 791 366 791 485 q 745 172 791 260 q 614 33 699 85 q 421 -19 529 -19 q 305 -1 363 -19 l 232 -197 l 185 -197 l 264 14 q 108 154 165 59 q 50 366 50 248 q 96 560 50 472 q 228 700 142 648 q 421 751 313 751 q 536 734 481 751 l 609 930 l 656 930 l 576 720 m 283 64 l 524 702 q 421 735 478 735 q 299 685 352 735 q 218 552 246 635 q 191 366 191 469 q 215 193 191 272 q 283 64 239 113 m 421 -3 q 543 47 490 -3 q 623 180 595 97 q 650 366 650 264 q 626 541 650 460 q 557 670 602 621 l 317 32 q 421 -3 365 -3 z "},"ù":{"ha":871,"x_min":22,"x_max":838,"o":"m 414 768 q 399 791 414 781 q 364 808 385 801 q 322 825 343 816 q 287 853 302 835 q 273 898 273 872 q 293 948 273 927 q 343 968 314 968 q 404 934 384 968 q 430 768 430 892 l 414 768 m 838 717 q 757 704 776 717 q 739 647 739 691 l 739 178 q 747 123 739 142 q 777 98 755 104 q 838 109 799 92 l 838 93 l 614 0 l 598 0 l 598 68 q 514 5 570 30 q 389 -19 458 -19 q 121 193 121 -19 l 121 647 q 103 702 121 688 q 22 717 85 717 l 22 733 l 360 733 l 360 717 q 306 712 327 717 q 276 696 285 707 q 264 674 267 685 q 261 647 261 664 l 261 193 q 299 41 261 85 q 411 -3 337 -3 q 525 26 473 -3 q 598 98 576 56 l 598 647 q 580 702 599 688 q 500 717 562 717 l 500 733 l 838 733 l 838 717 z "},"ú":{"ha":871,"x_min":22,"x_max":838,"o":"m 587 898 q 572 853 587 872 q 537 825 557 835 q 496 808 517 816 q 461 791 475 801 q 446 768 446 781 l 430 768 q 456 934 430 892 q 516 968 476 968 q 566 948 545 968 q 587 898 587 927 m 838 717 q 757 704 776 717 q 739 647 739 691 l 739 178 q 747 123 739 142 q 777 98 755 104 q 838 109 799 92 l 838 93 l 614 0 l 598 0 l 598 68 q 514 5 570 30 q 389 -19 458 -19 q 121 193 121 -19 l 121 647 q 103 702 121 688 q 22 717 85 717 l 22 733 l 360 733 l 360 717 q 306 712 327 717 q 276 696 285 707 q 264 674 267 685 q 261 647 261 664 l 261 193 q 299 41 261 85 q 411 -3 337 -3 q 525 26 473 -3 q 598 98 576 56 l 598 647 q 580 702 599 688 q 500 717 562 717 l 500 733 l 838 733 l 838 717 z "},"û":{"ha":871,"x_min":22,"x_max":838,"o":"m 344 779 q 338 772 342 777 q 333 765 334 767 l 309 765 l 402 972 l 459 972 l 551 765 l 526 765 l 433 897 q 344 779 368 814 m 838 717 q 757 704 776 717 q 739 647 739 691 l 739 178 q 747 123 739 142 q 777 98 755 104 q 838 109 799 92 l 838 93 l 614 0 l 598 0 l 598 68 q 514 5 570 30 q 389 -19 458 -19 q 121 193 121 -19 l 121 647 q 103 702 121 688 q 22 717 85 717 l 22 733 l 360 733 l 360 717 q 306 712 327 717 q 276 696 285 707 q 264 674 267 685 q 261 647 261 664 l 261 193 q 299 41 261 85 q 411 -3 337 -3 q 525 26 473 -3 q 598 98 576 56 l 598 647 q 580 702 599 688 q 500 717 562 717 l 500 733 l 838 733 l 838 717 z "},"ü":{"ha":871,"x_min":22,"x_max":838,"o":"m 386 791 q 375 780 386 791 q 332 768 363 768 q 277 791 300 768 q 254 846 254 814 q 277 900 254 878 q 332 923 300 923 q 386 900 363 923 q 409 846 409 878 q 386 791 409 814 m 562 791 q 551 780 562 791 q 507 768 539 768 q 453 791 475 768 q 430 846 430 814 q 453 900 430 878 q 507 923 475 923 q 562 900 539 923 q 585 846 585 878 q 562 791 585 814 m 838 717 q 757 704 776 717 q 739 647 739 691 l 739 178 q 747 123 739 142 q 777 98 755 104 q 838 109 799 92 l 838 93 l 614 0 l 598 0 l 598 68 q 514 5 570 30 q 389 -19 458 -19 q 121 193 121 -19 l 121 647 q 103 702 121 688 q 22 717 85 717 l 22 733 l 360 733 l 360 717 q 306 712 327 717 q 276 696 285 707 q 264 674 267 685 q 261 647 261 664 l 261 193 q 299 41 261 85 q 411 -3 337 -3 q 525 26 473 -3 q 598 98 576 56 l 598 647 q 580 702 599 688 q 500 717 562 717 l 500 733 l 838 733 l 838 717 z "},"ý":{"ha":815,"x_min":7,"x_max":808,"o":"m 626 898 q 611 853 626 872 q 576 825 597 835 q 535 808 555 816 q 499 791 514 801 q 485 768 485 781 l 469 768 q 494 934 469 892 q 555 968 515 968 q 605 948 585 968 q 626 898 626 927 m 553 604 q 603 681 564 651 q 693 722 642 711 q 808 733 744 733 l 808 717 q 623 608 660 717 q 594 488 606 554 q 575 369 582 421 q 545 234 568 316 q 481 63 522 152 q 433 -40 453 0 q 388 -116 412 -79 q 340 -172 363 -153 q 289 -203 317 -192 q 225 -214 260 -214 q 128 -177 167 -214 q 91 -91 89 -140 q 113 -43 92 -64 q 161 -23 134 -23 q 212 -44 191 -23 q 232 -94 232 -64 q 245 -142 232 -121 q 290 -163 258 -163 q 436 0 364 -163 l 144 647 q 99 703 124 690 q 7 717 74 717 l 7 733 l 345 733 l 345 717 q 298 712 315 717 q 277 696 281 707 q 275 675 273 686 q 285 647 277 664 l 506 157 q 540 293 530 222 q 548 414 550 363 q 546 519 545 465 q 553 604 547 573 z "},"þ":{"ha":879,"x_min":24,"x_max":829,"o":"m 465 867 q 603 842 538 867 q 719 770 668 817 q 800 649 770 723 q 829 482 829 574 q 801 313 829 387 q 724 192 773 238 q 609 121 674 145 q 465 97 543 97 q 338 123 390 97 q 263 200 286 150 l 263 85 q 283 36 263 56 q 332 16 303 16 l 361 16 l 361 0 l 24 0 l 24 16 l 53 16 q 102 36 82 16 q 122 85 122 56 l 122 878 q 102 927 122 907 q 53 947 82 947 l 24 947 l 24 964 l 361 964 l 361 947 l 332 947 q 283 927 303 947 q 263 878 263 907 l 263 784 q 465 867 336 867 m 465 113 q 571 142 526 113 q 640 222 615 170 q 677 338 665 274 q 689 482 689 402 q 665 665 689 583 q 589 799 641 747 q 465 851 537 851 q 315 774 367 851 q 263 560 263 696 l 263 281 q 319 157 263 201 q 465 113 376 113 z "},"ÿ":{"ha":815,"x_min":7,"x_max":808,"o":"m 456 824 q 447 815 456 824 q 412 806 438 806 q 369 824 387 806 q 351 868 351 842 q 369 912 351 894 q 412 930 387 930 q 456 912 437 930 q 474 868 474 894 q 456 824 474 842 m 623 824 q 614 815 623 824 q 580 806 605 806 q 536 824 555 806 q 518 868 518 842 q 536 912 518 894 q 580 930 555 930 q 623 912 605 930 q 642 868 642 894 q 623 824 642 842 m 553 604 q 603 681 564 651 q 693 722 642 711 q 808 733 744 733 l 808 717 q 623 608 660 717 q 594 488 606 554 q 575 369 582 421 q 545 234 568 316 q 481 63 522 152 q 433 -40 453 0 q 388 -116 412 -79 q 340 -172 363 -153 q 289 -203 317 -192 q 225 -214 260 -214 q 128 -177 167 -214 q 91 -91 89 -140 q 113 -43 92 -64 q 161 -23 134 -23 q 212 -44 191 -23 q 232 -94 232 -64 q 245 -142 232 -121 q 290 -163 258 -163 q 436 0 364 -163 l 144 647 q 99 703 124 690 q 7 717 74 717 l 7 733 l 345 733 l 345 717 q 298 712 315 717 q 277 696 281 707 q 275 675 273 686 q 285 647 277 664 l 506 157 q 540 293 530 222 q 548 414 550 363 q 546 519 545 465 q 553 604 547 573 z "},"Œ":{"ha":1515,"x_min":49,"x_max":1449,"o":"m 1433 342 l 1449 342 l 1449 0 l 756 0 l 756 16 l 785 16 q 834 36 814 16 q 854 85 854 56 l 854 122 q 706 18 791 55 q 521 -19 621 -19 q 277 48 385 -19 q 109 230 168 116 q 49 482 49 345 q 84 677 49 585 q 181 837 119 769 q 331 943 242 904 q 521 983 419 983 q 706 946 621 983 q 854 842 791 909 l 854 878 q 834 927 854 907 q 785 947 814 947 l 756 947 l 756 964 l 1415 964 l 1415 621 l 1399 621 l 1399 650 q 1395 717 1399 682 q 1379 794 1391 752 q 1347 870 1367 837 q 1294 925 1328 903 q 1217 947 1260 947 l 1065 947 q 1016 927 1036 947 q 996 878 996 907 l 996 446 q 1173 543 1035 523 q 1252 571 1229 551 q 1269 616 1274 592 l 1262 645 l 1278 648 l 1301 551 l 1305 535 l 1356 319 l 1340 316 l 1333 344 q 1261 484 1311 431 q 1141 522 1212 536 q 1031 469 1067 506 q 996 368 996 432 l 996 85 q 1016 36 996 56 q 1065 16 1036 16 l 1251 16 q 1328 39 1294 16 q 1381 94 1362 61 q 1413 169 1400 127 q 1429 247 1425 212 q 1433 313 1433 281 l 1433 342 m 348 63 q 386 30 348 63 q 521 -3 424 -3 q 694 63 618 -3 q 810 238 770 128 q 851 482 851 349 q 810 726 851 616 q 694 901 770 836 q 521 966 618 966 q 348 901 424 966 q 230 726 271 836 q 189 482 189 616 q 230 238 189 349 q 348 63 271 128 z "},"œ":{"ha":1397,"x_min":50,"x_max":1352,"o":"m 1337 231 l 1352 226 q 1325 147 1339 180 q 1287 81 1311 115 q 1232 27 1263 47 q 1153 -6 1200 7 q 1042 -19 1105 -19 q 849 20 931 -19 q 718 130 767 60 q 592 21 669 60 q 421 -19 515 -19 q 228 33 313 -19 q 96 173 142 85 q 50 366 50 260 q 96 560 50 472 q 228 700 142 648 q 421 751 313 751 q 591 712 515 751 q 718 604 667 673 q 837 712 764 673 q 1003 751 909 751 q 1166 726 1097 751 q 1277 642 1235 701 q 1318 495 1318 583 q 1295 407 1318 444 q 1225 350 1271 370 q 1120 320 1179 330 q 983 311 1061 311 q 885 284 927 311 q 832 213 844 257 q 846 115 821 170 q 1042 -3 913 -3 q 1145 10 1100 -3 q 1220 42 1190 22 q 1273 93 1250 61 q 1310 156 1296 125 q 1337 231 1323 187 m 298 47 q 325 22 298 47 q 420 -3 351 -3 q 543 47 490 -3 q 623 180 595 97 q 650 366 650 264 q 623 552 650 469 q 543 685 595 635 q 420 735 490 735 q 298 685 351 735 q 218 552 245 635 q 191 366 191 469 q 218 180 191 264 q 298 47 245 97 m 791 366 q 799 258 791 311 q 883 309 831 291 q 983 328 935 328 q 1132 365 1086 328 q 1177 495 1177 401 q 1003 735 1177 735 q 886 685 935 735 q 814 552 837 634 q 791 366 791 471 l 791 366 z "},"Š":{"ha":855,"x_min":60,"x_max":808,"o":"m 170 788 q 191 709 170 743 q 250 652 213 674 q 335 612 287 630 q 435 578 382 594 q 542 546 488 563 q 643 505 595 529 q 727 449 690 480 q 786 368 764 417 q 808 258 808 319 q 795 188 808 224 q 755 115 783 151 q 687 50 727 79 q 588 2 648 21 q 456 -18 528 -16 q 316 -6 381 -20 q 204 35 250 9 q 124 96 157 61 q 75 171 90 132 q 61 252 60 210 q 80 332 62 294 q 112 369 91 355 q 155 382 133 382 q 211 352 190 382 q 221 289 232 322 l 222 289 l 221 289 q 202 207 203 248 q 218 128 201 165 q 265 62 235 91 q 345 15 296 33 q 456 -2 395 -2 q 617 63 553 -2 q 682 217 682 128 q 660 303 682 266 q 603 365 639 340 q 520 408 567 389 q 422 442 474 427 q 319 473 371 457 q 221 510 267 488 q 138 558 174 531 q 81 629 102 586 q 60 726 60 671 q 153 909 60 836 q 380 983 245 983 q 528 963 460 983 q 640 911 596 943 q 712 842 683 880 q 752 769 742 804 q 756 705 762 733 q 726 660 750 676 q 669 649 703 644 q 625 681 642 654 q 612 739 608 709 q 568 903 627 838 q 380 967 509 967 q 231 912 292 967 q 170 788 170 857 m 422 1010 l 365 1010 l 273 1217 l 298 1217 l 391 1085 q 480 1202 456 1167 q 485 1209 481 1204 q 491 1217 489 1214 l 515 1217 l 422 1010 z "},"š":{"ha":772,"x_min":58,"x_max":724,"o":"m 188 593 q 206 529 188 556 q 256 486 224 502 q 327 458 287 469 q 412 437 367 446 q 501 417 456 427 q 585 391 545 408 q 656 353 625 375 q 706 295 688 331 q 724 210 724 258 q 708 122 724 162 q 656 50 692 83 q 555 -1 620 18 q 401 -19 490 -19 q 249 1 316 -19 q 142 53 182 20 q 81 123 102 85 q 60 202 60 161 q 81 252 60 231 q 131 273 102 273 q 181 252 160 273 q 201 202 201 231 q 238 49 194 101 q 401 -3 281 -3 q 551 42 505 -3 q 598 158 598 87 q 580 222 598 195 q 530 266 562 249 q 458 294 498 282 q 373 316 418 307 q 283 337 328 326 q 198 364 239 347 q 126 403 158 380 q 77 463 95 426 q 58 547 58 499 q 100 658 58 610 q 210 728 142 705 q 357 751 277 751 q 580 699 488 751 q 671 572 671 646 q 651 522 671 543 q 601 501 630 501 q 551 522 572 501 q 530 572 530 543 q 524 626 530 601 q 500 677 517 651 q 447 720 484 704 q 357 735 410 735 q 232 693 276 735 q 188 593 188 651 m 419 765 l 362 765 l 271 972 l 295 972 l 389 840 q 477 958 454 922 q 483 964 479 960 q 488 972 486 969 l 513 972 l 419 765 z "},"Ÿ":{"ha":998,"x_min":-3,"x_max":1000,"o":"m 878 964 l 1000 964 l 1000 947 l 972 947 q 874 918 913 947 q 789 804 836 888 l 547 370 l 547 85 q 567 36 547 56 q 616 16 587 16 l 646 16 l 646 0 l 308 0 l 308 16 l 337 16 q 386 36 366 16 q 406 85 406 56 l 406 370 l 123 878 q 26 947 85 947 l -3 947 l -3 964 l 329 964 l 329 947 l 280 947 q 264 878 225 947 l 539 385 l 772 804 q 801 872 794 843 q 801 917 808 901 q 779 940 793 932 q 743 947 764 947 l 663 947 l 663 964 l 878 964 m 487 1056 q 478 1047 487 1056 q 444 1038 469 1038 q 400 1056 418 1038 q 382 1100 382 1074 q 400 1144 382 1126 q 444 1162 418 1162 q 487 1144 469 1162 q 505 1100 505 1126 q 487 1056 505 1074 m 654 1056 q 645 1047 654 1056 q 611 1038 636 1038 q 568 1056 586 1038 q 549 1100 549 1074 q 568 1144 549 1126 q 611 1162 586 1162 q 654 1144 636 1162 q 673 1100 673 1126 q 654 1056 673 1074 z "},"Ž":{"ha":749,"x_min":37,"x_max":709,"o":"m 693 342 l 709 342 l 709 1 l 37 1 l 465 879 q 475 933 481 918 q 437 948 468 948 l 274 948 q 197 926 231 948 q 143 870 163 903 q 112 795 124 838 q 96 718 100 753 q 92 651 92 683 l 92 622 l 75 622 l 75 964 l 648 964 l 220 86 q 210 32 203 47 q 248 17 217 17 l 511 17 q 588 39 554 17 q 641 95 622 62 q 673 170 661 127 q 689 247 685 212 q 693 314 693 282 l 693 342 m 401 1010 l 344 1010 l 252 1217 l 277 1217 l 371 1085 q 459 1202 435 1167 q 465 1209 461 1204 q 470 1217 469 1214 l 494 1217 l 401 1010 z "},"ž":{"ha":688,"x_min":29,"x_max":648,"o":"m 632 222 l 648 222 l 648 0 l 29 0 l 473 717 l 283 717 q 213 712 242 717 q 163 696 183 708 q 131 671 142 685 q 112 631 119 656 q 103 578 105 605 q 101 511 101 552 l 85 511 l 85 733 l 613 733 l 613 718 l 179 16 l 450 16 q 520 21 490 16 q 570 38 549 26 q 602 65 590 50 q 621 106 614 81 q 630 157 628 131 q 632 222 632 183 m 366 765 l 309 765 l 218 972 l 243 972 l 336 840 q 425 958 401 922 q 430 964 427 960 q 435 972 434 969 l 460 972 l 366 765 z "},"":{"ha":985,"x_min":32,"x_max":1229,"o":"m 835 248 q 870 163 855 197 q 903 87 884 128 q 938 20 922 46 q 974 -35 954 -7 q 1014 -79 994 -63 q 1057 -108 1033 -95 q 1106 -124 1081 -121 q 1161 -122 1131 -126 q 1225 -104 1192 -118 l 1229 -115 q 912 -118 1046 -191 q 716 170 779 -45 q 611 386 673 318 q 456 443 549 454 q 387 424 418 437 q 329 386 355 410 q 287 323 302 362 q 271 233 271 284 l 271 85 q 291 36 271 56 q 340 16 311 16 l 370 16 l 370 0 l 32 0 l 32 16 l 61 16 q 110 36 90 16 q 130 85 130 56 l 130 878 q 110 927 130 907 q 61 947 90 947 l 32 947 l 32 964 l 149 964 q 285 973 174 964 q 457 983 396 983 q 793 916 677 983 q 908 705 908 849 q 824 517 908 582 q 568 453 739 453 q 737 386 675 436 q 835 248 800 336 m 271 324 q 358 428 296 392 q 511 463 420 463 q 618 477 572 463 q 693 513 665 491 q 738 568 721 535 q 762 633 755 600 q 768 705 768 666 q 752 807 768 762 q 701 889 736 852 q 605 946 667 926 q 457 966 543 966 q 366 960 404 966 q 308 941 328 954 q 280 913 288 928 q 271 878 271 898 l 271 324 z "},"":{"ha":920,"x_min":32,"x_max":1132,"o":"m 1128 -96 l 1132 -105 q 815 -108 949 -181 q 619 180 682 -35 q 604 232 613 201 q 590 281 595 264 q 577 324 585 299 q 564 363 569 349 q 550 394 558 376 q 533 421 541 412 q 514 441 525 431 q 491 456 503 452 q 464 463 479 460 q 431 465 448 466 l 271 233 l 271 95 q 291 39 271 53 q 370 26 311 26 l 370 9 l 32 9 l 32 26 q 111 39 93 26 q 130 95 130 52 l 130 888 q 112 943 131 928 q 32 957 92 957 l 32 973 l 370 973 l 370 957 q 290 944 308 957 q 271 888 271 930 l 271 256 l 699 879 q 712 909 710 896 q 707 930 714 922 q 687 944 699 938 q 656 952 675 949 q 619 956 637 955 q 578 957 601 957 l 578 973 l 916 973 l 916 957 q 792 943 836 957 q 718 883 749 928 l 441 481 q 497 501 471 495 q 545 506 524 507 q 585 496 566 505 q 619 476 605 487 q 648 447 633 466 q 672 412 663 428 q 692 373 681 397 q 709 333 703 349 q 724 293 715 317 q 738 258 733 269 q 773 172 758 207 q 806 97 787 138 q 841 29 825 56 q 877 -26 857 3 q 917 -70 897 -54 q 960 -99 936 -85 q 1009 -115 984 -112 q 1064 -113 1034 -117 q 1128 -96 1095 -109 z "}}}
